<svg width="830" height="201" viewBox="0 0 830 201" fill="none" xmlns="http://www.w3.org/2000/svg">
<rect width="830" height="201" rx="5" fill="#EAEAEA"/>
<path d="M269.172 54.9426H281.695V98.9229H308.828V109.144H269.172V54.9424V54.9426ZM390.999 96.7161C393.009 94.6255 394.014 91.8258 394.014 88.3147C394.014 84.8052 393.009 82.0043 390.999 79.9135C388.989 77.8231 386.463 76.7779 383.424 76.7779C380.331 76.7779 377.781 77.8231 375.771 79.9137C373.761 82.0043 372.756 84.8052 372.756 88.3147C372.756 91.8256 373.761 94.6255 375.771 96.7163C377.781 98.8063 380.331 99.8519 383.424 99.8519C386.463 99.8519 388.989 98.8063 390.999 96.7161ZM405.841 51.6904V109.144H394.323V104.343C391.334 107.957 387.005 109.763 381.336 109.763C377.419 109.763 373.877 108.886 370.707 107.13C367.538 105.376 365.051 102.872 363.248 99.6199C361.443 96.3675 360.542 92.6001 360.542 88.3147C360.542 84.0307 361.443 80.2623 363.248 77.0099C365.051 73.7579 367.538 71.2552 370.707 69.4996C373.877 67.7449 377.419 66.8671 381.336 66.8671C386.644 66.8671 390.792 68.545 393.782 71.9V51.6904H405.841V51.6904ZM443.563 96.7161C445.573 94.6255 446.578 91.8258 446.578 88.3147C446.578 84.8052 445.573 82.0043 443.563 79.9135C441.554 77.8231 439.027 76.7779 435.988 76.7779C432.896 76.7779 430.344 77.8231 428.335 79.9137C426.325 82.0043 425.32 84.8052 425.32 88.3147C425.32 91.8256 426.325 94.6255 428.335 96.7163C430.344 98.8063 432.896 99.8519 435.988 99.8519C439.027 99.8519 441.554 98.8063 443.563 96.7161ZM458.405 51.6904V109.144H446.887V104.343C443.898 107.957 439.569 109.763 433.901 109.763C429.983 109.763 426.441 108.886 423.272 107.13C420.102 105.376 417.615 102.872 415.812 99.6199C414.007 96.3675 413.106 92.6001 413.106 88.3147C413.106 84.0307 414.007 80.2623 415.812 77.0099C417.615 73.7579 420.102 71.2552 423.272 69.4996C426.441 67.7449 429.983 66.8671 433.901 66.8671C439.207 66.8671 443.357 68.545 446.346 71.9V51.6904H458.405V51.6904ZM556.075 71.5127C559.243 74.6095 560.828 79.2047 560.828 85.295V109.144H548.768V87.1534C548.768 83.8507 548.048 81.385 546.604 79.7589C545.162 78.1326 543.074 77.3197 540.344 77.3197C537.303 77.3197 534.881 78.2624 533.078 80.1456C531.272 82.0309 530.37 84.8306 530.37 88.5474V109.144H518.311V67.4862H529.83V72.3643C531.427 70.6102 533.411 69.2549 535.782 68.2992C538.153 67.3446 540.756 66.8671 543.591 66.8671C548.743 66.8671 552.904 68.4153 556.075 71.5127V71.5127ZM351.62 87.656C351.251 87.8282 350.905 87.7549 350.59 87.5125C350.524 87.4606 350.463 87.4037 350.407 87.3422C350.174 87.095 349.885 86.9559 349.552 86.9159C349.189 86.8731 348.824 86.8378 348.459 86.8103C348.292 86.7973 348.126 86.7845 347.968 86.7307C347.663 86.6268 347.546 86.3796 347.656 86.0762C347.749 85.8202 347.936 85.6463 348.166 85.5131C348.62 85.2498 349.115 85.1643 349.645 85.1821C350.47 85.1444 351.173 85.48 351.812 85.9832C352.038 86.1615 352.218 86.3781 352.26 86.6812C352.327 87.1679 351.955 87.4997 351.62 87.656V87.656ZM349.063 92.6701C348.398 94.578 347.34 96.3361 346.022 97.8621C342.927 101.446 338.406 103.689 333.652 103.707C330.803 103.718 327.955 102.995 325.404 101.659C322.705 100.245 320.533 98.0441 318.97 95.4409C318.847 95.2358 318.724 95.0154 318.727 94.7762C318.746 93.4235 321.171 94.1269 321.906 94.2131C328.154 94.9448 334.805 93.3837 340.78 91.6616C342.277 91.2302 343.789 90.6001 345.18 89.8344C345.893 89.4406 346.586 89.0092 347.254 88.542C347.827 88.1412 348.521 87.3275 349.307 87.5695C350.682 87.9937 349.373 91.7816 349.063 92.6701V92.6701ZM317.613 94.5346C317.557 94.596 317.503 94.6616 317.438 94.7131C317.132 94.9576 316.732 94.8713 316.548 94.5246C316.459 94.3572 316.436 94.1766 316.44 94.0817C316.445 93.5481 316.614 93.1599 316.84 92.7943C317.049 92.457 317.317 92.1596 317.641 91.9417C318.186 91.5759 318.785 91.3205 319.455 91.2965C319.773 91.2851 320.066 91.3614 320.289 91.6178C320.504 91.8659 320.539 92.1432 320.407 92.4336C320.249 92.7828 319.978 93.0246 319.625 93.1706C319.471 93.2341 319.312 93.2871 319.155 93.3409C318.719 93.4899 318.349 93.7381 318.035 94.0723C317.892 94.2244 317.754 94.3809 317.613 94.5346V94.5346ZM321.433 82.7373C321.506 82.5134 321.664 82.3275 321.873 82.2206C322.083 82.1136 322.326 82.0943 322.55 82.167L322.682 82.21C322.968 82.3032 323.251 82.4153 323.533 82.4978L323.954 82.5894L324.162 82.6378L324.369 82.6507C324.505 82.6591 324.641 82.6702 324.777 82.6839C324.908 82.6717 325.039 82.6617 325.17 82.6539C325.304 82.6579 325.425 82.6105 325.55 82.5852L325.738 82.5439C325.8 82.5282 325.857 82.4957 325.917 82.4746C326.393 82.3017 326.849 82.0277 327.257 81.6454C327.454 81.4493 327.654 81.2452 327.826 81.0129C327.915 80.899 327.998 80.781 328.076 80.6593C328.15 80.5457 328.237 80.4026 328.284 80.3237L328.339 80.2292C328.452 80.0372 328.633 79.8948 328.846 79.8303C329.06 79.7657 329.289 79.7837 329.49 79.8806C329.69 79.9775 329.847 80.1463 329.929 80.3536C330.012 80.5609 330.013 80.7915 329.934 80.9999C329.859 81.1964 329.774 81.3886 329.678 81.5756C329.587 81.7502 329.488 81.9204 329.381 82.0859C329.168 82.4227 328.924 82.7391 328.654 83.031C328.107 83.6203 327.4 84.1269 326.588 84.394C326.487 84.4277 326.388 84.4686 326.284 84.4931L325.972 84.5555C325.763 84.5919 325.555 84.6454 325.345 84.6414L324.718 84.6586C324.515 84.6375 324.312 84.6121 324.111 84.5825L323.809 84.5373L323.524 84.4564L322.956 84.2894C322.596 84.148 322.256 83.9771 321.91 83.8197C321.711 83.7295 321.553 83.5693 321.465 83.3697C321.377 83.17 321.366 82.9449 321.433 82.7373V82.7373ZM335.587 78.8323C335.668 78.7555 335.764 78.6955 335.869 78.6559C335.974 78.6162 336.086 78.5976 336.198 78.6012C336.31 78.6047 336.42 78.6303 336.522 78.6766C336.624 78.7228 336.716 78.7887 336.793 78.8706L336.879 78.9624C337.085 79.1827 337.28 79.4189 337.49 79.6302L337.825 79.9118L337.992 80.0528L338.173 80.1613L338.531 80.3804L338.908 80.533C339.029 80.5973 339.163 80.6098 339.291 80.644L339.483 80.6915C339.548 80.7049 339.615 80.7022 339.681 80.7091C340.199 80.7554 340.757 80.7114 341.257 80.4466C341.504 80.3128 341.768 80.2223 342.027 80.098C342.159 80.0404 342.287 79.9776 342.419 79.9162C342.542 79.858 342.692 79.7823 342.787 79.7496L343.016 79.6711C343.192 79.6108 343.384 79.6106 343.561 79.6706C343.737 79.7305 343.889 79.8473 343.993 80.0026C344.096 80.158 344.146 80.3432 344.133 80.5297C344.121 80.7161 344.047 80.8931 343.924 81.0334C343.759 81.2209 343.633 81.3462 343.476 81.4801C343.324 81.6085 343.164 81.726 342.996 81.8318C342.664 82.0468 342.299 82.2255 341.907 82.3262C341.712 82.3807 341.506 82.4061 341.311 82.4521C341.111 82.4888 340.905 82.5131 340.703 82.5447C340.293 82.5806 339.876 82.591 339.462 82.5253C339.359 82.5108 339.254 82.5047 339.152 82.4813L338.85 82.401C338.651 82.3426 338.445 82.3001 338.262 82.2054L337.702 81.9496L337.197 81.6215L336.948 81.4537L336.728 81.2601L336.29 80.873C336.022 80.5994 335.783 80.3069 335.532 80.0228C335.385 79.8561 335.308 79.6387 335.319 79.4166C335.329 79.1944 335.425 78.9849 335.587 78.8325V78.8323ZM354.4 79.6707C353.2 76.9967 351.565 74.7308 349.495 72.8746C347.424 71.0197 345.026 69.5993 342.301 68.6172C339.575 67.6341 336.661 67.1428 333.555 67.1428C330.502 67.1428 327.6 67.6341 324.849 68.6172C322.096 69.5993 319.699 71.0197 317.655 72.8746C315.612 74.7308 313.99 76.9967 312.792 79.6707C311.592 82.3457 310.993 85.3486 310.993 88.6777C310.993 92.0075 311.592 95.0234 312.792 97.7255C313.989 100.427 315.612 102.72 317.655 104.604C319.699 106.487 322.096 107.947 324.849 108.984C327.6 110.02 330.502 110.539 333.555 110.539C336.661 110.539 339.575 110.02 342.301 108.984C345.026 107.947 347.424 106.487 349.495 104.604C351.565 102.72 353.2 100.427 354.4 97.7253C355.597 95.0234 356.198 92.0075 356.198 88.6777C356.198 85.3486 355.597 82.3457 354.4 79.6707V79.6707ZM505.502 94.301C505.318 94.6471 504.919 94.733 504.613 94.4892C504.549 94.4376 504.495 94.3721 504.439 94.3109C504.298 94.1575 504.161 94.0012 504.018 93.8494C503.705 93.5159 503.334 93.2682 502.9 93.1195C502.743 93.0658 502.584 93.0129 502.431 92.9492C502.079 92.8038 501.807 92.5624 501.649 92.2136C501.518 91.9241 501.553 91.6473 501.768 91.3993C501.99 91.1435 502.283 91.0675 502.6 91.0786C503.269 91.1029 503.867 91.3576 504.411 91.7228C504.735 91.9402 505.002 92.2371 505.21 92.5737C505.435 92.9387 505.604 93.3262 505.609 93.8588C505.613 93.9535 505.591 94.1337 505.502 94.3008L505.502 94.301ZM503.084 95.2157C501.525 97.8137 499.356 100.011 496.663 101.422C494.116 102.755 491.273 103.477 488.43 103.467C483.685 103.448 479.172 101.209 476.082 97.6324C474.767 96.1088 473.711 94.354 473.047 92.4497C472.738 91.5629 471.431 87.7822 472.804 87.3588C473.588 87.117 474.281 87.9294 474.853 88.3293C475.52 88.7959 476.211 89.2266 476.924 89.6196C478.311 90.3837 479.821 91.0128 481.315 91.4433C487.279 93.1622 493.917 94.7204 500.153 93.9899C500.888 93.9038 503.308 93.202 503.327 94.552C503.33 94.7908 503.207 95.0108 503.084 95.2157V95.2157ZM471.706 87.1317C471.65 87.1932 471.589 87.25 471.523 87.3016C471.209 87.544 470.863 87.6169 470.495 87.4451C470.161 87.2892 469.789 86.958 469.856 86.472C469.898 86.1695 470.078 85.9535 470.304 85.7754C470.941 85.273 471.643 84.9384 472.466 84.976C472.996 84.9583 473.49 85.0434 473.943 85.3063C474.172 85.4391 474.359 85.6128 474.452 85.8682C474.562 86.1713 474.445 86.4179 474.14 86.5216C473.982 86.5752 473.817 86.5882 473.65 86.6012C473.286 86.6291 472.922 86.6628 472.559 86.7064C472.227 86.7462 471.939 86.8853 471.706 87.1317V87.1317ZM478.252 79.6409C478.364 79.5423 478.499 79.4751 478.645 79.4459C478.791 79.4167 478.942 79.4267 479.083 79.4748L479.311 79.5533C479.406 79.586 479.556 79.6615 479.679 79.7197C479.811 79.7809 479.939 79.8437 480.07 79.9015C480.329 80.0253 480.592 80.1158 480.839 80.2491C481.338 80.5133 481.895 80.5575 482.412 80.5112C482.478 80.5042 482.545 80.507 482.609 80.4934L482.801 80.446C482.929 80.4121 483.063 80.3995 483.184 80.3356L483.56 80.1833L483.918 79.9644L484.098 79.8561L484.265 79.7153L484.599 79.4342C484.808 79.2236 485.003 78.9875 485.209 78.7677L485.294 78.6764C485.447 78.5092 485.659 78.4094 485.884 78.399C486.11 78.3886 486.331 78.4684 486.498 78.6208C486.665 78.7733 486.764 78.9859 486.775 79.2119C486.785 79.438 486.705 79.6589 486.553 79.8261C486.302 80.1098 486.064 80.402 485.797 80.6748L485.359 81.0613L485.14 81.2545L484.891 81.4218L484.387 81.7493L483.828 82.0049C483.646 82.0992 483.44 82.1417 483.241 82.1995L482.94 82.2802C482.838 82.3034 482.734 82.3095 482.631 82.3241C482.218 82.3893 481.801 82.3792 481.391 82.3434C481.19 82.3118 480.985 82.2875 480.785 82.2512C480.59 82.2049 480.384 82.1796 480.19 82.1251C479.798 82.0248 479.435 81.8463 479.103 81.6316C478.935 81.5261 478.775 81.4088 478.624 81.2807C478.467 81.147 478.341 81.0223 478.177 80.8348C478.029 80.6664 477.953 80.4461 477.967 80.2222C477.982 79.9983 478.084 79.7892 478.252 79.6409V79.6409ZM492.648 79.6526C492.844 79.5764 493.061 79.5727 493.26 79.6423C493.459 79.7118 493.627 79.8499 493.733 80.032L493.788 80.1267C493.855 80.2397 493.924 80.3514 493.995 80.4615C494.074 80.5822 494.155 80.701 494.245 80.8143C494.416 81.0462 494.616 81.2501 494.813 81.4457C495.22 81.8272 495.675 82.1006 496.151 82.2734C496.211 82.2944 496.267 82.3269 496.329 82.3426L496.516 82.3838C496.641 82.409 496.762 82.4565 496.896 82.4524C497.027 82.4601 497.158 82.4701 497.288 82.4825C497.423 82.4691 497.559 82.4566 497.696 82.449L497.902 82.4364L498.11 82.3882L498.53 82.2965C498.812 82.2142 499.093 82.1023 499.379 82.0093L499.512 81.9665C499.727 81.896 499.961 81.9108 500.165 82.0079C500.37 82.105 500.529 82.277 500.611 82.4884C500.693 82.6998 500.691 82.9345 500.605 83.1443C500.519 83.3541 500.356 83.523 500.15 83.6161C499.804 83.773 499.465 83.9435 499.105 84.0848L498.539 84.2513L498.254 84.3324L497.953 84.3772C497.752 84.4057 497.55 84.4333 497.347 84.4533L496.721 84.4361C496.512 84.4401 496.304 84.3868 496.096 84.3504L495.783 84.288C495.681 84.2639 495.582 84.2228 495.481 84.1891C494.67 83.9226 493.965 83.4167 493.419 82.8288C493.148 82.5374 492.905 82.2216 492.693 81.8853C492.586 81.7202 492.487 81.5503 492.396 81.376C492.301 81.1893 492.215 80.9974 492.141 80.8013C492.056 80.5816 492.062 80.3372 492.157 80.1217C492.252 79.9063 492.429 79.7376 492.648 79.6526V79.6526ZM509.138 79.2278C507.94 76.559 506.308 74.2973 504.242 72.4445C502.174 70.5928 499.781 69.1753 497.062 68.1949C494.341 67.214 491.432 66.7236 488.331 66.7236C485.284 66.7236 482.388 67.214 479.642 68.1949C476.894 69.1753 474.502 70.5928 472.461 72.4443C470.422 74.2973 468.803 76.559 467.607 79.2278C466.41 81.898 465.812 84.8949 465.812 88.2179C465.812 91.5416 466.41 94.552 467.607 97.2489C468.803 99.9459 470.422 102.234 472.461 104.114C474.502 105.994 476.894 107.452 479.642 108.487C482.388 109.521 485.284 110.039 488.331 110.039C491.432 110.039 494.341 109.521 497.062 108.487C499.781 107.452 502.174 105.994 504.242 104.114C506.308 102.234 507.94 99.9459 509.137 97.2489C510.332 94.552 510.933 91.5416 510.933 88.2179C510.933 84.8949 510.332 81.898 509.137 79.2278" fill="#067BC2"/>
<path d="M273.317 142.677C271.644 142.19 270.3 141.557 269.286 140.779L271.067 136.822C272.038 137.535 273.193 138.109 274.532 138.541C275.87 138.973 277.208 139.19 278.547 139.19C280.036 139.19 281.137 138.968 281.85 138.525C282.562 138.082 282.918 137.492 282.918 136.757C282.918 136.217 282.708 135.768 282.287 135.411C281.866 135.054 281.326 134.768 280.668 134.552C280.009 134.335 279.119 134.097 277.996 133.838C276.269 133.427 274.855 133.016 273.754 132.605C272.653 132.195 271.709 131.535 270.921 130.627C270.133 129.719 269.739 128.508 269.739 126.994C269.739 125.675 270.095 124.48 270.808 123.41C271.52 122.339 272.594 121.491 274.03 120.864C275.465 120.237 277.219 119.923 279.292 119.923C280.737 119.923 282.152 120.096 283.533 120.442C284.915 120.788 286.124 121.285 287.16 121.934L285.541 125.924C283.447 124.735 281.353 124.14 279.259 124.14C277.791 124.14 276.706 124.378 276.005 124.853C275.303 125.329 274.953 125.956 274.953 126.735C274.953 127.513 275.357 128.092 276.167 128.47C276.976 128.849 278.212 129.222 279.874 129.589C281.601 130 283.015 130.411 284.116 130.822C285.217 131.232 286.162 131.881 286.95 132.767C287.738 133.654 288.132 134.854 288.132 136.368C288.132 137.665 287.77 138.849 287.047 139.919C286.323 140.99 285.239 141.839 283.792 142.466C282.346 143.093 280.587 143.406 278.514 143.406C276.722 143.406 274.99 143.163 273.317 142.677H273.317ZM303.366 137.811C304.197 136.935 304.613 135.763 304.613 134.292C304.613 132.822 304.197 131.648 303.366 130.773C302.535 129.897 301.472 129.46 300.177 129.46C298.882 129.46 297.813 129.897 296.971 130.773C296.129 131.648 295.708 132.822 295.708 134.292C295.708 135.763 296.129 136.935 296.971 137.811C297.813 138.687 298.882 139.125 300.177 139.125C301.472 139.125 302.535 138.687 303.366 137.811ZM295.239 142.125C293.782 141.358 292.643 140.292 291.823 138.93C291.002 137.568 290.592 136.022 290.592 134.292C290.592 132.562 291.002 131.016 291.823 129.654C292.643 128.292 293.782 127.227 295.239 126.459C296.696 125.692 298.342 125.308 300.177 125.308C302.012 125.308 303.653 125.692 305.099 126.459C306.545 127.227 307.679 128.292 308.499 129.654C309.319 131.016 309.73 132.562 309.73 134.292C309.73 136.022 309.319 137.568 308.499 138.93C307.679 140.292 306.545 141.358 305.099 142.125C303.653 142.893 302.012 143.276 300.177 143.276C298.342 143.276 296.696 142.893 295.239 142.125V142.125ZM317.032 142.125C315.553 141.358 314.398 140.292 313.567 138.93C312.735 137.568 312.32 136.022 312.32 134.292C312.32 132.562 312.735 131.016 313.567 129.654C314.398 128.292 315.553 127.227 317.032 126.459C318.51 125.692 320.178 125.308 322.034 125.308C323.869 125.308 325.472 125.692 326.843 126.459C328.214 127.227 329.212 128.324 329.838 129.751L325.92 131.86C325.014 130.259 323.707 129.46 322.002 129.46C320.685 129.46 319.595 129.892 318.731 130.756C317.868 131.622 317.436 132.8 317.436 134.292C317.436 135.784 317.868 136.963 318.731 137.828C319.595 138.693 320.685 139.125 322.002 139.125C323.729 139.125 325.035 138.325 325.92 136.725L329.838 138.866C329.212 140.249 328.214 141.33 326.843 142.109C325.472 142.887 323.869 143.276 322.034 143.276C320.178 143.276 318.51 142.893 317.032 142.125V142.125ZM333.271 125.567H338.322V143.017H333.271V125.567ZM333.53 122.324C332.947 121.783 332.655 121.113 332.655 120.313C332.655 119.513 332.947 118.842 333.53 118.301C334.112 117.761 334.868 117.491 335.796 117.491C336.724 117.491 337.48 117.75 338.063 118.269C338.646 118.788 338.937 119.437 338.937 120.215C338.937 121.059 338.646 121.756 338.063 122.307C337.48 122.859 336.724 123.134 335.796 123.134C334.868 123.134 334.112 122.864 333.53 122.324V122.324ZM352.473 139.271C353.141 138.871 353.617 138.281 353.897 137.503V135.719H350.433C348.36 135.719 347.324 136.4 347.324 137.763C347.324 138.411 347.577 138.925 348.085 139.303C348.592 139.682 349.288 139.871 350.174 139.871C351.037 139.871 351.803 139.671 352.473 139.271ZM356.779 127.237C358.225 128.524 358.949 130.465 358.949 133.059V143.017H354.221V140.844C353.271 142.466 351.501 143.276 348.911 143.276C347.572 143.276 346.412 143.049 345.43 142.595C344.447 142.141 343.697 141.514 343.179 140.714C342.661 139.915 342.402 139.006 342.402 137.99C342.402 136.368 343.012 135.092 344.231 134.162C345.451 133.233 347.334 132.767 349.882 132.767H353.897C353.897 131.665 353.562 130.816 352.894 130.221C352.224 129.627 351.22 129.329 349.882 129.329C348.953 129.33 348.029 129.477 347.146 129.767C346.25 130.059 345.489 130.454 344.863 130.951L343.05 127.416C343.999 126.746 345.138 126.227 346.466 125.859C347.793 125.491 349.159 125.308 350.562 125.308C353.26 125.308 355.333 125.951 356.779 127.237V127.237ZM364.032 118.95H369.084V143.017H364.032V118.95V118.95ZM401.885 138.801V143.017H384.335V120.313H401.465V124.529H389.549V129.46H400.072V133.546H389.548V138.801H401.885H401.885ZM422.042 127.254C423.37 128.551 424.034 130.475 424.034 133.027V143.017H418.982V133.806C418.982 132.421 418.68 131.389 418.076 130.708C417.471 130.027 416.597 129.686 415.453 129.686C414.179 129.686 413.164 130.081 412.409 130.87C411.653 131.659 411.276 132.832 411.276 134.389V143.017H406.224V125.567H411.049V127.61C411.718 126.875 412.549 126.308 413.542 125.907C414.535 125.507 415.625 125.308 416.813 125.308C418.971 125.308 420.715 125.956 422.042 127.254V127.254ZM440.354 142.174C439.857 142.541 439.247 142.817 438.524 143.001C437.801 143.184 437.04 143.276 436.242 143.276C434.169 143.276 432.566 142.747 431.433 141.687C430.299 140.628 429.733 139.071 429.733 137.016V129.848H427.045V125.956H429.733V121.707H434.784V125.956H439.124V129.848H434.784V136.952C434.784 137.687 434.973 138.255 435.351 138.654C435.729 139.055 436.262 139.255 436.954 139.255C437.752 139.255 438.432 139.039 438.994 138.606L440.354 142.174H440.354ZM448.319 130.108C447.542 130.757 447.067 131.643 446.894 132.767H455.476C455.302 131.665 454.828 130.784 454.051 130.124C453.274 129.464 452.323 129.135 451.201 129.135C450.057 129.135 449.096 129.46 448.319 130.108H448.319ZM460.138 135.719H446.959C447.196 136.801 447.758 137.654 448.643 138.281C449.528 138.909 450.629 139.222 451.946 139.222C452.852 139.222 453.656 139.087 454.359 138.817C455.06 138.546 455.713 138.119 456.317 137.535L459.005 140.455C457.364 142.336 454.968 143.276 451.816 143.276C449.852 143.276 448.114 142.893 446.603 142.125C445.092 141.358 443.926 140.292 443.106 138.93C442.285 137.568 441.875 136.022 441.875 134.292C441.875 132.584 442.28 131.044 443.09 129.67C443.899 128.297 445.011 127.227 446.425 126.459C447.838 125.692 449.42 125.308 451.169 125.308C452.874 125.308 454.417 125.675 455.8 126.41C457.181 127.145 458.266 128.199 459.054 129.572C459.842 130.946 460.235 132.541 460.235 134.357C460.235 134.422 460.203 134.875 460.138 135.719V135.719ZM471.391 125.956C472.416 125.524 473.598 125.308 474.936 125.308V129.978C474.375 129.935 473.998 129.913 473.803 129.913C472.357 129.913 471.223 130.319 470.403 131.129C469.583 131.941 469.173 133.157 469.173 134.778V143.017H464.121V125.567H468.946V127.87C469.55 127.027 470.365 126.389 471.391 125.956V125.956ZM491.078 137.811C491.909 136.935 492.325 135.763 492.325 134.292C492.325 132.822 491.909 131.648 491.078 130.773C490.247 129.897 489.184 129.46 487.889 129.46C486.593 129.46 485.53 129.897 484.699 130.773C483.868 131.648 483.452 132.822 483.452 134.292C483.452 135.763 483.868 136.935 484.699 137.811C485.53 138.687 486.593 139.125 487.889 139.125C489.184 139.125 490.247 138.687 491.078 137.811ZM493.183 126.427C494.511 127.172 495.552 128.222 496.308 129.572C497.063 130.924 497.441 132.497 497.441 134.292C497.441 136.087 497.063 137.66 496.308 139.012C495.552 140.363 494.511 141.412 493.183 142.157C491.855 142.904 490.382 143.276 488.763 143.276C486.539 143.276 484.79 142.574 483.517 141.168V149.31H478.466V125.567H483.291V127.578C484.542 126.065 486.367 125.308 488.763 125.308C490.382 125.308 491.855 125.681 493.183 126.427L493.183 126.427ZM508.596 125.956C509.62 125.524 510.804 125.308 512.142 125.308V129.978C511.581 129.935 511.202 129.913 511.008 129.913C509.562 129.913 508.428 130.319 507.609 131.129C506.788 131.941 506.378 133.157 506.378 134.778V143.017H501.327V125.567H506.151V127.87C506.756 127.027 507.571 126.389 508.596 125.956ZM515.671 125.567H520.724V143.017H515.671V125.567ZM515.931 122.324C515.348 121.783 515.058 121.113 515.058 120.313C515.058 119.513 515.348 118.842 515.931 118.301C516.514 117.761 517.268 117.491 518.198 117.491C519.125 117.491 519.881 117.75 520.464 118.269C521.048 118.788 521.338 119.437 521.338 120.215C521.338 121.059 521.048 121.756 520.464 122.307C519.881 122.859 519.125 123.134 518.198 123.134C517.268 123.134 516.514 122.864 515.931 122.324V122.324ZM527.555 142.741C526.175 142.385 525.072 141.936 524.252 141.395L525.938 137.763C526.714 138.26 527.652 138.666 528.754 138.979C529.855 139.292 530.935 139.449 531.991 139.449C534.128 139.449 535.198 138.919 535.198 137.86C535.198 137.362 534.905 137.006 534.324 136.79C533.741 136.573 532.845 136.389 531.635 136.238C530.211 136.022 529.035 135.774 528.105 135.492C527.178 135.211 526.373 134.714 525.693 134C525.013 133.287 524.674 132.27 524.674 130.951C524.674 129.848 524.993 128.87 525.629 128.016C526.266 127.162 527.193 126.497 528.413 126.021C529.633 125.546 531.075 125.308 532.735 125.308C533.972 125.308 535.205 125.444 536.413 125.713C537.63 125.983 538.641 126.356 539.438 126.832L537.755 130.432C536.222 129.568 534.548 129.135 532.735 129.135C531.658 129.135 530.848 129.286 530.308 129.589C529.768 129.892 529.498 130.281 529.498 130.756C529.498 131.297 529.791 131.676 530.372 131.892C530.955 132.108 531.884 132.314 533.158 132.508C534.581 132.746 535.748 133 536.654 133.27C537.561 133.541 538.348 134.032 539.018 134.746C539.688 135.46 540.021 136.455 540.021 137.73C540.021 138.812 539.698 139.774 539.051 140.617C538.404 141.46 537.459 142.114 536.217 142.579C534.976 143.044 533.502 143.276 531.798 143.276C530.367 143.278 528.941 143.099 527.555 142.741V142.741ZM548.798 130.108C548.021 130.757 547.545 131.643 547.372 132.767H555.954C555.781 131.665 555.307 130.784 554.528 130.124C553.751 129.464 552.801 129.135 551.678 129.135C550.535 129.135 549.574 129.46 548.798 130.108V130.108ZM560.618 135.719H547.438C547.675 136.801 548.235 137.654 549.121 138.281C550.007 138.909 551.108 139.222 552.424 139.222C553.331 139.222 554.136 139.087 554.836 138.817C555.539 138.546 556.191 138.119 556.795 137.535L559.484 140.455C557.844 142.336 555.447 143.276 552.294 143.276C550.331 143.276 548.592 142.893 547.081 142.125C545.571 141.358 544.405 140.292 543.584 138.93C542.764 137.568 542.354 136.022 542.354 134.292C542.354 132.584 542.759 131.044 543.569 129.67C544.376 128.297 545.49 127.227 546.903 126.459C548.316 125.692 549.898 125.308 551.648 125.308C553.351 125.308 554.895 125.675 556.278 126.41C557.658 127.145 558.743 128.199 559.533 129.572C560.32 130.946 560.714 132.541 560.714 134.357C560.714 134.422 560.681 134.875 560.618 135.719" fill="#F37748"/>
</svg>
