<svg width="830" height="201" viewBox="0 0 830 201" fill="none" xmlns="http://www.w3.org/2000/svg">
<g clip-path="url(#clip0_475_116)">
<rect width="830" height="201" rx="5" fill="#F0F0F0"/>
<path d="M269.172 54.9426H281.695V98.9229H308.828V109.144H269.172V54.9424V54.9426ZM390.999 96.7161C393.009 94.6255 394.014 91.8258 394.014 88.3147C394.014 84.8052 393.009 82.0043 390.999 79.9135C388.989 77.8231 386.463 76.7779 383.424 76.7779C380.331 76.7779 377.781 77.8231 375.771 79.9137C373.761 82.0043 372.756 84.8052 372.756 88.3147C372.756 91.8256 373.761 94.6255 375.771 96.7163C377.781 98.8063 380.331 99.8519 383.424 99.8519C386.463 99.8519 388.989 98.8063 390.999 96.7161ZM405.841 51.6904V109.144H394.323V104.343C391.334 107.957 387.005 109.763 381.336 109.763C377.419 109.763 373.877 108.886 370.707 107.13C367.538 105.376 365.051 102.872 363.248 99.6199C361.443 96.3675 360.542 92.6001 360.542 88.3147C360.542 84.0307 361.443 80.2623 363.248 77.0099C365.051 73.7579 367.538 71.2552 370.707 69.4996C373.877 67.7449 377.419 66.8671 381.336 66.8671C386.644 66.8671 390.792 68.545 393.782 71.9V51.6904H405.841V51.6904ZM443.563 96.7161C445.573 94.6255 446.578 91.8258 446.578 88.3147C446.578 84.8052 445.573 82.0043 443.563 79.9135C441.554 77.8231 439.027 76.7779 435.988 76.7779C432.896 76.7779 430.344 77.8231 428.335 79.9137C426.325 82.0043 425.32 84.8052 425.32 88.3147C425.32 91.8256 426.325 94.6255 428.335 96.7163C430.344 98.8063 432.896 99.8519 435.988 99.8519C439.027 99.8519 441.554 98.8063 443.563 96.7161ZM458.405 51.6904V109.144H446.887V104.343C443.898 107.957 439.569 109.763 433.901 109.763C429.983 109.763 426.441 108.886 423.272 107.13C420.102 105.376 417.615 102.872 415.812 99.6199C414.007 96.3675 413.106 92.6001 413.106 88.3147C413.106 84.0307 414.007 80.2623 415.812 77.0099C417.615 73.7579 420.102 71.2552 423.272 69.4996C426.441 67.7449 429.983 66.8671 433.901 66.8671C439.207 66.8671 443.357 68.545 446.346 71.9V51.6904H458.405V51.6904ZM556.075 71.5127C559.243 74.6095 560.828 79.2047 560.828 85.295V109.144H548.768V87.1534C548.768 83.8507 548.048 81.385 546.604 79.7589C545.162 78.1326 543.074 77.3197 540.344 77.3197C537.303 77.3197 534.881 78.2624 533.078 80.1456C531.272 82.0309 530.37 84.8306 530.37 88.5474V109.144H518.311V67.4862H529.83V72.3643C531.427 70.6102 533.411 69.2549 535.782 68.2992C538.153 67.3446 540.756 66.8671 543.591 66.8671C548.743 66.8671 552.904 68.4153 556.075 71.5127V71.5127ZM351.62 87.656C351.251 87.8282 350.905 87.7549 350.59 87.5125C350.524 87.4606 350.463 87.4037 350.407 87.3422C350.174 87.095 349.885 86.9559 349.552 86.9159C349.189 86.8731 348.824 86.8378 348.459 86.8103C348.292 86.7973 348.126 86.7845 347.968 86.7307C347.663 86.6268 347.546 86.3796 347.656 86.0762C347.749 85.8202 347.936 85.6463 348.166 85.5131C348.62 85.2498 349.115 85.1643 349.645 85.1821C350.47 85.1444 351.173 85.48 351.812 85.9832C352.038 86.1615 352.218 86.3781 352.26 86.6812C352.327 87.1679 351.955 87.4997 351.62 87.656V87.656ZM349.063 92.6701C348.398 94.578 347.34 96.3361 346.022 97.8621C342.927 101.446 338.406 103.689 333.652 103.707C330.803 103.718 327.955 102.995 325.404 101.659C322.705 100.245 320.533 98.0441 318.97 95.4409C318.847 95.2358 318.724 95.0154 318.727 94.7762C318.746 93.4235 321.171 94.1269 321.906 94.2131C328.154 94.9448 334.805 93.3837 340.78 91.6616C342.277 91.2302 343.789 90.6001 345.18 89.8344C345.893 89.4406 346.586 89.0092 347.254 88.542C347.827 88.1412 348.521 87.3275 349.307 87.5695C350.682 87.9937 349.373 91.7816 349.063 92.6701V92.6701ZM317.613 94.5346C317.557 94.596 317.503 94.6616 317.438 94.7131C317.132 94.9576 316.732 94.8713 316.548 94.5246C316.459 94.3572 316.436 94.1766 316.44 94.0817C316.445 93.5481 316.614 93.1599 316.84 92.7943C317.049 92.457 317.317 92.1596 317.641 91.9417C318.186 91.5759 318.785 91.3205 319.455 91.2965C319.773 91.2851 320.066 91.3614 320.289 91.6178C320.504 91.8659 320.539 92.1432 320.407 92.4336C320.249 92.7828 319.978 93.0246 319.625 93.1706C319.471 93.2341 319.312 93.2871 319.155 93.3409C318.719 93.4899 318.349 93.7381 318.035 94.0723C317.892 94.2244 317.754 94.3809 317.613 94.5346V94.5346ZM321.433 82.7373C321.506 82.5134 321.664 82.3275 321.873 82.2206C322.083 82.1136 322.326 82.0943 322.55 82.167L322.682 82.21C322.968 82.3032 323.251 82.4153 323.533 82.4978L323.954 82.5894L324.162 82.6378L324.369 82.6507C324.505 82.6591 324.641 82.6702 324.777 82.6839C324.908 82.6717 325.039 82.6617 325.17 82.6539C325.304 82.6579 325.425 82.6105 325.55 82.5852L325.738 82.5439C325.8 82.5282 325.857 82.4957 325.917 82.4746C326.393 82.3017 326.849 82.0277 327.257 81.6454C327.454 81.4493 327.654 81.2452 327.826 81.0129C327.915 80.899 327.998 80.781 328.076 80.6593C328.15 80.5457 328.237 80.4026 328.284 80.3237L328.339 80.2292C328.452 80.0372 328.633 79.8948 328.846 79.8303C329.06 79.7657 329.289 79.7837 329.49 79.8806C329.69 79.9775 329.847 80.1463 329.929 80.3536C330.012 80.5609 330.013 80.7915 329.934 80.9999C329.859 81.1964 329.774 81.3886 329.678 81.5756C329.587 81.7502 329.488 81.9204 329.381 82.0859C329.168 82.4227 328.924 82.7391 328.654 83.031C328.107 83.6203 327.4 84.1269 326.588 84.394C326.487 84.4277 326.388 84.4686 326.284 84.4931L325.972 84.5555C325.763 84.5919 325.555 84.6454 325.345 84.6414L324.718 84.6586C324.515 84.6375 324.312 84.6121 324.111 84.5825L323.809 84.5373L323.524 84.4564L322.956 84.2894C322.596 84.148 322.256 83.9771 321.91 83.8197C321.711 83.7295 321.553 83.5693 321.465 83.3697C321.377 83.17 321.366 82.9449 321.433 82.7373V82.7373ZM335.587 78.8323C335.668 78.7555 335.764 78.6955 335.869 78.6559C335.974 78.6162 336.086 78.5976 336.198 78.6012C336.31 78.6047 336.42 78.6303 336.522 78.6766C336.624 78.7228 336.716 78.7887 336.793 78.8706L336.879 78.9624C337.085 79.1827 337.28 79.4189 337.49 79.6302L337.825 79.9118L337.992 80.0528L338.173 80.1613L338.531 80.3804L338.908 80.533C339.029 80.5973 339.163 80.6098 339.291 80.644L339.483 80.6915C339.548 80.7049 339.615 80.7022 339.681 80.7091C340.199 80.7554 340.757 80.7114 341.257 80.4466C341.504 80.3128 341.768 80.2223 342.027 80.098C342.159 80.0404 342.287 79.9776 342.419 79.9162C342.542 79.858 342.692 79.7823 342.787 79.7496L343.016 79.6711C343.192 79.6108 343.384 79.6106 343.561 79.6706C343.737 79.7305 343.889 79.8473 343.993 80.0026C344.096 80.158 344.146 80.3432 344.133 80.5297C344.121 80.7161 344.047 80.8931 343.924 81.0334C343.759 81.2209 343.633 81.3462 343.476 81.4801C343.324 81.6085 343.164 81.726 342.996 81.8318C342.664 82.0468 342.299 82.2255 341.907 82.3262C341.712 82.3807 341.506 82.4061 341.311 82.4521C341.111 82.4888 340.905 82.5131 340.703 82.5447C340.293 82.5806 339.876 82.591 339.462 82.5253C339.359 82.5108 339.254 82.5047 339.152 82.4813L338.85 82.401C338.651 82.3426 338.445 82.3001 338.262 82.2054L337.702 81.9496L337.197 81.6215L336.948 81.4537L336.728 81.2601L336.29 80.873C336.022 80.5994 335.783 80.3069 335.532 80.0228C335.385 79.8561 335.308 79.6387 335.319 79.4166C335.329 79.1944 335.425 78.9849 335.587 78.8325V78.8323ZM354.4 79.6707C353.2 76.9967 351.565 74.7308 349.495 72.8746C347.424 71.0197 345.026 69.5993 342.301 68.6172C339.575 67.6341 336.661 67.1428 333.555 67.1428C330.502 67.1428 327.6 67.6341 324.849 68.6172C322.096 69.5993 319.699 71.0197 317.655 72.8746C315.612 74.7308 313.99 76.9967 312.792 79.6707C311.592 82.3457 310.993 85.3486 310.993 88.6777C310.993 92.0075 311.592 95.0234 312.792 97.7255C313.989 100.427 315.612 102.72 317.655 104.604C319.699 106.487 322.096 107.947 324.849 108.984C327.6 110.02 330.502 110.539 333.555 110.539C336.661 110.539 339.575 110.02 342.301 108.984C345.026 107.947 347.424 106.487 349.495 104.604C351.565 102.72 353.2 100.427 354.4 97.7253C355.597 95.0234 356.198 92.0075 356.198 88.6777C356.198 85.3486 355.597 82.3457 354.4 79.6707V79.6707ZM505.502 94.301C505.318 94.6471 504.919 94.733 504.613 94.4892C504.549 94.4376 504.495 94.3721 504.439 94.3109C504.298 94.1575 504.161 94.0012 504.018 93.8494C503.705 93.5159 503.334 93.2682 502.9 93.1195C502.743 93.0658 502.584 93.0129 502.431 92.9492C502.079 92.8038 501.807 92.5624 501.649 92.2136C501.518 91.9241 501.553 91.6473 501.768 91.3993C501.99 91.1435 502.283 91.0675 502.6 91.0786C503.269 91.1029 503.867 91.3576 504.411 91.7228C504.735 91.9402 505.002 92.2371 505.21 92.5737C505.435 92.9387 505.604 93.3262 505.609 93.8588C505.613 93.9535 505.591 94.1337 505.502 94.3008L505.502 94.301ZM503.084 95.2157C501.525 97.8137 499.356 100.011 496.663 101.422C494.116 102.755 491.273 103.477 488.43 103.467C483.685 103.448 479.172 101.209 476.082 97.6324C474.767 96.1088 473.711 94.354 473.047 92.4497C472.738 91.5629 471.431 87.7822 472.804 87.3588C473.588 87.117 474.281 87.9294 474.853 88.3293C475.52 88.7959 476.211 89.2266 476.924 89.6196C478.311 90.3837 479.821 91.0128 481.315 91.4433C487.279 93.1622 493.917 94.7204 500.153 93.9899C500.888 93.9038 503.308 93.202 503.327 94.552C503.33 94.7908 503.207 95.0108 503.084 95.2157V95.2157ZM471.706 87.1317C471.65 87.1932 471.589 87.25 471.523 87.3016C471.209 87.544 470.863 87.6169 470.495 87.4451C470.161 87.2892 469.789 86.958 469.856 86.472C469.898 86.1695 470.078 85.9535 470.304 85.7754C470.941 85.273 471.643 84.9384 472.466 84.976C472.996 84.9583 473.49 85.0434 473.943 85.3063C474.172 85.4391 474.359 85.6128 474.452 85.8682C474.562 86.1713 474.445 86.4179 474.14 86.5216C473.982 86.5752 473.817 86.5882 473.65 86.6012C473.286 86.6291 472.922 86.6628 472.559 86.7064C472.227 86.7462 471.939 86.8853 471.706 87.1317V87.1317ZM478.252 79.6409C478.364 79.5423 478.499 79.4751 478.645 79.4459C478.791 79.4167 478.942 79.4267 479.083 79.4748L479.311 79.5533C479.406 79.586 479.556 79.6615 479.679 79.7197C479.811 79.7809 479.939 79.8437 480.07 79.9015C480.329 80.0253 480.592 80.1158 480.839 80.2491C481.338 80.5133 481.895 80.5575 482.412 80.5112C482.478 80.5042 482.545 80.507 482.609 80.4934L482.801 80.446C482.929 80.4121 483.063 80.3995 483.184 80.3356L483.56 80.1833L483.918 79.9644L484.098 79.8561L484.265 79.7153L484.599 79.4342C484.808 79.2236 485.003 78.9875 485.209 78.7677L485.294 78.6764C485.447 78.5092 485.659 78.4094 485.884 78.399C486.11 78.3886 486.331 78.4684 486.498 78.6208C486.665 78.7733 486.764 78.9859 486.775 79.2119C486.785 79.438 486.705 79.6589 486.553 79.8261C486.302 80.1098 486.064 80.402 485.797 80.6748L485.359 81.0613L485.14 81.2545L484.891 81.4218L484.387 81.7493L483.828 82.0049C483.646 82.0992 483.44 82.1417 483.241 82.1995L482.94 82.2802C482.838 82.3034 482.734 82.3095 482.631 82.3241C482.218 82.3893 481.801 82.3792 481.391 82.3434C481.19 82.3118 480.985 82.2875 480.785 82.2512C480.59 82.2049 480.384 82.1796 480.19 82.1251C479.798 82.0248 479.435 81.8463 479.103 81.6316C478.935 81.5261 478.775 81.4088 478.624 81.2807C478.467 81.147 478.341 81.0223 478.177 80.8348C478.029 80.6664 477.953 80.4461 477.967 80.2222C477.982 79.9983 478.084 79.7892 478.252 79.6409V79.6409ZM492.648 79.6526C492.844 79.5764 493.061 79.5727 493.26 79.6423C493.459 79.7118 493.627 79.8499 493.733 80.032L493.788 80.1267C493.855 80.2397 493.924 80.3514 493.995 80.4615C494.074 80.5822 494.155 80.701 494.245 80.8143C494.416 81.0462 494.616 81.2501 494.813 81.4457C495.22 81.8272 495.675 82.1006 496.151 82.2734C496.211 82.2944 496.267 82.3269 496.329 82.3426L496.516 82.3838C496.641 82.409 496.762 82.4565 496.896 82.4524C497.027 82.4601 497.158 82.4701 497.288 82.4825C497.423 82.4691 497.559 82.4566 497.696 82.449L497.902 82.4364L498.11 82.3882L498.53 82.2965C498.812 82.2142 499.093 82.1023 499.379 82.0093L499.512 81.9665C499.727 81.896 499.961 81.9108 500.165 82.0079C500.37 82.105 500.529 82.277 500.611 82.4884C500.693 82.6998 500.691 82.9345 500.605 83.1443C500.519 83.3541 500.356 83.523 500.15 83.6161C499.804 83.773 499.465 83.9435 499.105 84.0848L498.539 84.2513L498.254 84.3324L497.953 84.3772C497.752 84.4057 497.55 84.4333 497.347 84.4533L496.721 84.4361C496.512 84.4401 496.304 84.3868 496.096 84.3504L495.783 84.288C495.681 84.2639 495.582 84.2228 495.481 84.1891C494.67 83.9226 493.965 83.4167 493.419 82.8288C493.148 82.5374 492.905 82.2216 492.693 81.8853C492.586 81.7202 492.487 81.5503 492.396 81.376C492.301 81.1893 492.215 80.9974 492.141 80.8013C492.056 80.5816 492.062 80.3372 492.157 80.1217C492.252 79.9063 492.429 79.7376 492.648 79.6526V79.6526ZM509.138 79.2278C507.94 76.559 506.308 74.2973 504.242 72.4445C502.174 70.5928 499.781 69.1753 497.062 68.1949C494.341 67.214 491.432 66.7236 488.331 66.7236C485.284 66.7236 482.388 67.214 479.642 68.1949C476.894 69.1753 474.502 70.5928 472.461 72.4443C470.422 74.2973 468.803 76.559 467.607 79.2278C466.41 81.898 465.812 84.8949 465.812 88.2179C465.812 91.5416 466.41 94.552 467.607 97.2489C468.803 99.9459 470.422 102.234 472.461 104.114C474.502 105.994 476.894 107.452 479.642 108.487C482.388 109.521 485.284 110.039 488.331 110.039C491.432 110.039 494.341 109.521 497.062 108.487C499.781 107.452 502.174 105.994 504.242 104.114C506.308 102.234 507.94 99.9459 509.137 97.2489C510.332 94.552 510.933 91.5416 510.933 88.2179C510.933 84.8949 510.332 81.898 509.137 79.2278" fill="#067BC2"/>
<path d="M273.317 142.677C271.644 142.19 270.3 141.557 269.286 140.779L271.067 136.822C272.038 137.535 273.193 138.109 274.532 138.541C275.87 138.973 277.208 139.19 278.547 139.19C280.036 139.19 281.137 138.968 281.85 138.525C282.562 138.082 282.918 137.492 282.918 136.757C282.918 136.217 282.708 135.768 282.287 135.411C281.866 135.054 281.326 134.768 280.668 134.552C280.009 134.335 279.119 134.097 277.996 133.838C276.269 133.427 274.855 133.016 273.754 132.605C272.653 132.195 271.709 131.535 270.921 130.627C270.133 129.719 269.739 128.508 269.739 126.994C269.739 125.675 270.095 124.48 270.808 123.41C271.52 122.339 272.594 121.491 274.03 120.864C275.465 120.237 277.219 119.923 279.292 119.923C280.737 119.923 282.152 120.096 283.533 120.442C284.915 120.788 286.124 121.285 287.16 121.934L285.541 125.924C283.447 124.735 281.353 124.14 279.259 124.14C277.791 124.14 276.706 124.378 276.005 124.853C275.303 125.329 274.953 125.956 274.953 126.735C274.953 127.513 275.357 128.092 276.167 128.47C276.976 128.849 278.212 129.222 279.874 129.589C281.601 130 283.015 130.411 284.116 130.822C285.217 131.232 286.162 131.881 286.95 132.767C287.738 133.654 288.132 134.854 288.132 136.368C288.132 137.665 287.77 138.849 287.047 139.919C286.323 140.99 285.239 141.839 283.792 142.466C282.346 143.093 280.587 143.406 278.514 143.406C276.722 143.406 274.99 143.163 273.317 142.677H273.317ZM303.366 137.811C304.197 136.935 304.613 135.763 304.613 134.292C304.613 132.822 304.197 131.648 303.366 130.773C302.535 129.897 301.472 129.46 300.177 129.46C298.882 129.46 297.813 129.897 296.971 130.773C296.129 131.648 295.708 132.822 295.708 134.292C295.708 135.763 296.129 136.935 296.971 137.811C297.813 138.687 298.882 139.125 300.177 139.125C301.472 139.125 302.535 138.687 303.366 137.811ZM295.239 142.125C293.782 141.358 292.643 140.292 291.823 138.93C291.002 137.568 290.592 136.022 290.592 134.292C290.592 132.562 291.002 131.016 291.823 129.654C292.643 128.292 293.782 127.227 295.239 126.459C296.696 125.692 298.342 125.308 300.177 125.308C302.012 125.308 303.653 125.692 305.099 126.459C306.545 127.227 307.679 128.292 308.499 129.654C309.319 131.016 309.73 132.562 309.73 134.292C309.73 136.022 309.319 137.568 308.499 138.93C307.679 140.292 306.545 141.358 305.099 142.125C303.653 142.893 302.012 143.276 300.177 143.276C298.342 143.276 296.696 142.893 295.239 142.125V142.125ZM317.032 142.125C315.553 141.358 314.398 140.292 313.567 138.93C312.735 137.568 312.32 136.022 312.32 134.292C312.32 132.562 312.735 131.016 313.567 129.654C314.398 128.292 315.553 127.227 317.032 126.459C318.51 125.692 320.178 125.308 322.034 125.308C323.869 125.308 325.472 125.692 326.843 126.459C328.214 127.227 329.212 128.324 329.838 129.751L325.92 131.86C325.014 130.259 323.707 129.46 322.002 129.46C320.685 129.46 319.595 129.892 318.731 130.756C317.868 131.622 317.436 132.8 317.436 134.292C317.436 135.784 317.868 136.963 318.731 137.828C319.595 138.693 320.685 139.125 322.002 139.125C323.729 139.125 325.035 138.325 325.92 136.725L329.838 138.866C329.212 140.249 328.214 141.33 326.843 142.109C325.472 142.887 323.869 143.276 322.034 143.276C320.178 143.276 318.51 142.893 317.032 142.125V142.125ZM333.271 125.567H338.322V143.017H333.271V125.567ZM333.53 122.324C332.947 121.783 332.655 121.113 332.655 120.313C332.655 119.513 332.947 118.842 333.53 118.301C334.112 117.761 334.868 117.491 335.796 117.491C336.724 117.491 337.48 117.75 338.063 118.269C338.646 118.788 338.937 119.437 338.937 120.215C338.937 121.059 338.646 121.756 338.063 122.307C337.48 122.859 336.724 123.134 335.796 123.134C334.868 123.134 334.112 122.864 333.53 122.324V122.324ZM352.473 139.271C353.141 138.871 353.617 138.281 353.897 137.503V135.719H350.433C348.36 135.719 347.324 136.4 347.324 137.763C347.324 138.411 347.577 138.925 348.085 139.303C348.592 139.682 349.288 139.871 350.174 139.871C351.037 139.871 351.803 139.671 352.473 139.271ZM356.779 127.237C358.225 128.524 358.949 130.465 358.949 133.059V143.017H354.221V140.844C353.271 142.466 351.501 143.276 348.911 143.276C347.572 143.276 346.412 143.049 345.43 142.595C344.447 142.141 343.697 141.514 343.179 140.714C342.661 139.915 342.402 139.006 342.402 137.99C342.402 136.368 343.012 135.092 344.231 134.162C345.451 133.233 347.334 132.767 349.882 132.767H353.897C353.897 131.665 353.562 130.816 352.894 130.221C352.224 129.627 351.22 129.329 349.882 129.329C348.953 129.33 348.029 129.477 347.146 129.767C346.25 130.059 345.489 130.454 344.863 130.951L343.05 127.416C343.999 126.746 345.138 126.227 346.466 125.859C347.793 125.491 349.159 125.308 350.562 125.308C353.26 125.308 355.333 125.951 356.779 127.237V127.237ZM364.032 118.95H369.084V143.017H364.032V118.95V118.95ZM401.885 138.801V143.017H384.335V120.313H401.465V124.529H389.549V129.46H400.072V133.546H389.548V138.801H401.885H401.885ZM422.042 127.254C423.37 128.551 424.034 130.475 424.034 133.027V143.017H418.982V133.806C418.982 132.421 418.68 131.389 418.076 130.708C417.471 130.027 416.597 129.686 415.453 129.686C414.179 129.686 413.164 130.081 412.409 130.87C411.653 131.659 411.276 132.832 411.276 134.389V143.017H406.224V125.567H411.049V127.61C411.718 126.875 412.549 126.308 413.542 125.907C414.535 125.507 415.625 125.308 416.813 125.308C418.971 125.308 420.715 125.956 422.042 127.254V127.254ZM440.354 142.174C439.857 142.541 439.247 142.817 438.524 143.001C437.801 143.184 437.04 143.276 436.242 143.276C434.169 143.276 432.566 142.747 431.433 141.687C430.299 140.628 429.733 139.071 429.733 137.016V129.848H427.045V125.956H429.733V121.707H434.784V125.956H439.124V129.848H434.784V136.952C434.784 137.687 434.973 138.255 435.351 138.654C435.729 139.055 436.262 139.255 436.954 139.255C437.752 139.255 438.432 139.039 438.994 138.606L440.354 142.174H440.354ZM448.319 130.108C447.542 130.757 447.067 131.643 446.894 132.767H455.476C455.302 131.665 454.828 130.784 454.051 130.124C453.274 129.464 452.323 129.135 451.201 129.135C450.057 129.135 449.096 129.46 448.319 130.108H448.319ZM460.138 135.719H446.959C447.196 136.801 447.758 137.654 448.643 138.281C449.528 138.909 450.629 139.222 451.946 139.222C452.852 139.222 453.656 139.087 454.359 138.817C455.06 138.546 455.713 138.119 456.317 137.535L459.005 140.455C457.364 142.336 454.968 143.276 451.816 143.276C449.852 143.276 448.114 142.893 446.603 142.125C445.092 141.358 443.926 140.292 443.106 138.93C442.285 137.568 441.875 136.022 441.875 134.292C441.875 132.584 442.28 131.044 443.09 129.67C443.899 128.297 445.011 127.227 446.425 126.459C447.838 125.692 449.42 125.308 451.169 125.308C452.874 125.308 454.417 125.675 455.8 126.41C457.181 127.145 458.266 128.199 459.054 129.572C459.842 130.946 460.235 132.541 460.235 134.357C460.235 134.422 460.203 134.875 460.138 135.719V135.719ZM471.391 125.956C472.416 125.524 473.598 125.308 474.936 125.308V129.978C474.375 129.935 473.998 129.913 473.803 129.913C472.357 129.913 471.223 130.319 470.403 131.129C469.583 131.941 469.173 133.157 469.173 134.778V143.017H464.121V125.567H468.946V127.87C469.55 127.027 470.365 126.389 471.391 125.956V125.956ZM491.078 137.811C491.909 136.935 492.325 135.763 492.325 134.292C492.325 132.822 491.909 131.648 491.078 130.773C490.247 129.897 489.184 129.46 487.889 129.46C486.593 129.46 485.53 129.897 484.699 130.773C483.868 131.648 483.452 132.822 483.452 134.292C483.452 135.763 483.868 136.935 484.699 137.811C485.53 138.687 486.593 139.125 487.889 139.125C489.184 139.125 490.247 138.687 491.078 137.811ZM493.183 126.427C494.511 127.172 495.552 128.222 496.308 129.572C497.063 130.924 497.441 132.497 497.441 134.292C497.441 136.087 497.063 137.66 496.308 139.012C495.552 140.363 494.511 141.412 493.183 142.157C491.855 142.904 490.382 143.276 488.763 143.276C486.539 143.276 484.79 142.574 483.517 141.168V149.31H478.466V125.567H483.291V127.578C484.542 126.065 486.367 125.308 488.763 125.308C490.382 125.308 491.855 125.681 493.183 126.427L493.183 126.427ZM508.596 125.956C509.62 125.524 510.804 125.308 512.142 125.308V129.978C511.581 129.935 511.202 129.913 511.008 129.913C509.562 129.913 508.428 130.319 507.609 131.129C506.788 131.941 506.378 133.157 506.378 134.778V143.017H501.327V125.567H506.151V127.87C506.756 127.027 507.571 126.389 508.596 125.956ZM515.671 125.567H520.724V143.017H515.671V125.567ZM515.931 122.324C515.348 121.783 515.058 121.113 515.058 120.313C515.058 119.513 515.348 118.842 515.931 118.301C516.514 117.761 517.268 117.491 518.198 117.491C519.125 117.491 519.881 117.75 520.464 118.269C521.048 118.788 521.338 119.437 521.338 120.215C521.338 121.059 521.048 121.756 520.464 122.307C519.881 122.859 519.125 123.134 518.198 123.134C517.268 123.134 516.514 122.864 515.931 122.324V122.324ZM527.555 142.741C526.175 142.385 525.072 141.936 524.252 141.395L525.938 137.763C526.714 138.26 527.652 138.666 528.754 138.979C529.855 139.292 530.935 139.449 531.991 139.449C534.128 139.449 535.198 138.919 535.198 137.86C535.198 137.362 534.905 137.006 534.324 136.79C533.741 136.573 532.845 136.389 531.635 136.238C530.211 136.022 529.035 135.774 528.105 135.492C527.178 135.211 526.373 134.714 525.693 134C525.013 133.287 524.674 132.27 524.674 130.951C524.674 129.848 524.993 128.87 525.629 128.016C526.266 127.162 527.193 126.497 528.413 126.021C529.633 125.546 531.075 125.308 532.735 125.308C533.972 125.308 535.205 125.444 536.413 125.713C537.63 125.983 538.641 126.356 539.438 126.832L537.755 130.432C536.222 129.568 534.548 129.135 532.735 129.135C531.658 129.135 530.848 129.286 530.308 129.589C529.768 129.892 529.498 130.281 529.498 130.756C529.498 131.297 529.791 131.676 530.372 131.892C530.955 132.108 531.884 132.314 533.158 132.508C534.581 132.746 535.748 133 536.654 133.27C537.561 133.541 538.348 134.032 539.018 134.746C539.688 135.46 540.021 136.455 540.021 137.73C540.021 138.812 539.698 139.774 539.051 140.617C538.404 141.46 537.459 142.114 536.217 142.579C534.976 143.044 533.502 143.276 531.798 143.276C530.367 143.278 528.941 143.099 527.555 142.741V142.741ZM548.798 130.108C548.021 130.757 547.545 131.643 547.372 132.767H555.954C555.781 131.665 555.307 130.784 554.528 130.124C553.751 129.464 552.801 129.135 551.678 129.135C550.535 129.135 549.574 129.46 548.798 130.108V130.108ZM560.618 135.719H547.438C547.675 136.801 548.235 137.654 549.121 138.281C550.007 138.909 551.108 139.222 552.424 139.222C553.331 139.222 554.136 139.087 554.836 138.817C555.539 138.546 556.191 138.119 556.795 137.535L559.484 140.455C557.844 142.336 555.447 143.276 552.294 143.276C550.331 143.276 548.592 142.893 547.081 142.125C545.571 141.358 544.405 140.292 543.584 138.93C542.764 137.568 542.354 136.022 542.354 134.292C542.354 132.584 542.759 131.044 543.569 129.67C544.376 128.297 545.49 127.227 546.903 126.459C548.316 125.692 549.898 125.308 551.648 125.308C553.351 125.308 554.895 125.675 556.278 126.41C557.658 127.145 558.743 128.199 559.533 129.572C560.32 130.946 560.714 132.541 560.714 134.357C560.714 134.422 560.681 134.875 560.618 135.719" fill="#F37748"/>
<ellipse cx="764.5" cy="24" rx="47.5" ry="44" fill="white"/>
<ellipse cx="718.342" cy="134.667" rx="55.5439" ry="53.2922" fill="white"/>
<path d="M762.563 136.334C761.618 136.661 760.79 136.395 760.08 135.723C759.931 135.583 759.8 135.423 759.675 135.26C759.167 134.598 758.495 134.185 757.691 134.004C756.814 133.805 755.93 133.631 755.044 133.469C754.639 133.396 754.237 133.322 753.863 133.15C753.142 132.82 752.918 132.187 753.265 131.473C753.558 130.871 754.058 130.494 754.654 130.227C755.831 129.699 757.064 129.615 758.357 129.793C760.385 129.909 762.02 130.906 763.455 132.297C763.962 132.79 764.349 133.364 764.375 134.115C764.417 135.321 763.422 136.037 762.563 136.334V136.334ZM755.042 147.933C752.933 152.424 749.902 156.451 746.292 159.845C737.816 167.814 726.189 172.148 714.554 170.992C707.583 170.298 700.797 167.811 694.894 163.902C688.65 159.768 683.89 153.842 680.725 147.09C680.475 146.558 680.229 145.988 680.298 145.405C680.686 142.106 686.439 144.437 688.218 144.833C703.318 148.201 719.981 146.07 735.033 143.375C738.804 142.701 742.663 141.544 746.257 140.026C748.103 139.246 749.906 138.365 751.659 137.393C753.163 136.56 755.065 134.747 756.926 135.538C760.184 136.922 756.025 145.841 755.042 147.933ZM677.633 144.533C677.48 144.668 677.332 144.815 677.161 144.925C676.351 145.444 675.394 145.132 675.03 144.239C674.854 143.808 674.844 143.361 674.88 143.13C675.025 141.828 675.538 140.923 676.183 140.087C676.778 139.316 677.508 138.657 678.357 138.207C679.782 137.451 681.311 136.979 682.956 137.09C683.738 137.143 684.435 137.403 684.915 138.085C685.38 138.746 685.396 139.433 685.001 140.108C684.525 140.921 683.8 141.443 682.899 141.71C682.506 141.827 682.106 141.916 681.706 142.008C680.603 142.261 679.634 142.774 678.781 143.51C678.394 143.845 678.017 144.194 677.633 144.533ZM689.957 116.686C690.445 115.586 691.732 115.089 692.833 115.576L693.145 115.714C693.824 116.015 694.485 116.36 695.154 116.632L696.161 116.963L696.66 117.134L697.16 117.217C697.493 117.271 697.823 117.336 698.15 117.402C698.476 117.405 698.798 117.414 699.12 117.428C699.446 117.472 699.755 117.386 700.069 117.356L700.537 117.303C700.693 117.28 700.84 117.215 700.992 117.179C702.202 116.877 703.386 116.323 704.479 115.493C705.013 115.064 705.553 114.616 706.033 114.092C706.281 113.837 706.509 113.567 706.732 113.291C706.943 113.033 707.193 112.705 707.325 112.524L707.484 112.307C708.106 111.456 709.271 111.159 710.24 111.653C711.314 112.202 711.741 113.518 711.192 114.593C710.912 115.141 710.696 115.511 710.421 115.935C710.15 116.336 709.87 116.731 709.565 117.105C708.969 117.867 708.29 118.575 707.547 119.23C706.061 120.53 704.204 121.589 702.149 122.036C701.893 122.093 701.641 122.168 701.383 122.202L700.602 122.274C700.081 122.311 699.558 122.389 699.047 122.326L697.508 122.21C697.016 122.109 696.527 121.991 696.041 121.87L695.316 121.684L694.638 121.414L693.291 120.862C692.447 120.426 691.658 119.922 690.851 119.451C689.904 118.899 689.503 117.712 689.957 116.686V116.686ZM725.568 110.729C726.491 110.027 727.808 110.206 728.51 111.128L728.697 111.373C729.146 111.963 729.563 112.59 730.022 113.158L730.771 113.932L731.143 114.318L731.559 114.629L732.379 115.254L733.263 115.722C733.544 115.91 733.868 115.975 734.172 116.09L734.631 116.255C734.786 116.304 734.951 116.314 735.11 116.348C736.366 116.592 737.742 116.626 739.033 116.105C739.671 115.842 740.339 115.687 741.004 115.449C741.34 115.341 741.671 115.221 742.008 115.104C742.326 114.993 742.711 114.846 742.952 114.79L743.531 114.656C744.234 114.495 745.002 114.705 745.526 115.273C746.306 116.117 746.253 117.433 745.409 118.213C744.958 118.63 744.617 118.903 744.199 119.191C743.794 119.463 743.375 119.716 742.937 119.928C742.069 120.369 741.134 120.714 740.148 120.86C739.658 120.944 739.148 120.954 738.657 121.017C738.159 121.056 737.65 121.063 737.149 121.09C736.136 121.074 735.112 120.993 734.115 120.728C733.867 120.666 733.612 120.626 733.37 120.543L732.652 120.269C732.178 120.077 731.684 119.921 731.261 119.644L729.956 118.877L728.803 117.948L728.236 117.475L727.748 116.947L726.774 115.891C726.187 115.155 725.677 114.38 725.134 113.622C724.476 112.703 724.663 111.418 725.568 110.729V110.729ZM771.38 117.535C769.121 110.701 765.693 104.753 761.097 99.6956C756.498 94.6416 750.991 90.5664 744.574 87.4783C738.154 84.3887 731.148 82.4514 723.548 81.6657C716.081 80.8938 708.857 81.3598 701.879 83.0644C694.897 84.7674 688.674 87.6297 683.206 91.6431C677.738 95.6599 673.197 100.784 669.592 107.011C665.982 113.241 663.758 120.423 662.918 128.554C662.077 136.687 662.781 144.204 665.033 151.106C667.281 158.008 670.671 164.018 675.194 169.134C679.719 174.252 685.215 178.424 691.687 181.652C698.155 184.88 705.123 186.881 712.591 187.655C720.19 188.44 727.452 187.908 734.382 186.066C741.308 184.223 747.542 181.262 753.085 177.186C758.626 173.111 763.205 167.925 766.821 161.629C770.434 155.333 772.664 148.12 773.505 139.987C774.346 131.856 773.635 124.371 771.38 117.535" fill="#D56062"/>
<ellipse cx="851.572" cy="99.3895" rx="53.6675" ry="51.791" fill="white"/>
<path d="M888.937 122.92C888.9 123.153 888.75 123.58 888.449 123.94C887.823 124.687 886.806 124.692 886.187 123.942C886.055 123.784 885.96 123.597 885.853 123.419C885.59 122.974 885.334 122.523 885.065 122.081C884.471 121.109 883.698 120.316 882.715 119.732C882.36 119.52 882.002 119.31 881.659 119.077C880.875 118.542 880.338 117.816 880.132 116.887C879.96 116.115 880.189 115.46 880.84 114.967C881.512 114.459 882.263 114.424 883.031 114.615C884.647 115.016 885.973 115.943 887.112 117.11C887.788 117.805 888.288 118.664 888.621 119.59C888.984 120.593 889.198 121.622 888.937 122.92V122.92ZM883.021 123.435C882.907 124.017 882.494 124.489 882.089 124.924C876.959 130.442 870.549 134.673 863.265 136.722C856.38 138.658 849.083 138.956 842.163 137.47C830.612 134.99 820.765 127.228 815.072 116.944C812.648 112.564 810.976 107.754 810.334 102.782C810.035 100.466 808.788 90.6009 812.35 90.2757C814.384 90.0902 815.654 92.4214 816.844 93.6873C818.23 95.1633 819.692 96.5677 821.227 97.8881C824.216 100.459 827.572 102.764 830.991 104.578C844.639 111.819 860.01 119.015 875.576 120.439C877.411 120.607 883.665 120.141 883.021 123.435V123.435ZM809.259 89.4797C808.368 89.9069 807.489 89.9072 806.681 89.3009C805.947 88.7497 805.21 87.7538 805.623 86.6062C805.88 85.8921 806.43 85.4587 807.07 85.1419C808.879 84.2467 810.761 83.7929 812.747 84.3071C814.046 84.5357 815.206 84.9962 816.176 85.8685C816.667 86.3091 817.031 86.827 817.127 87.4962C817.24 88.2897 816.83 88.8297 816.034 88.925C815.621 88.9745 815.211 88.921 814.799 88.8668C813.897 88.7484 812.993 88.6437 812.087 88.5634C811.258 88.4898 810.485 88.6798 809.791 89.16C809.621 89.2776 809.445 89.3907 809.259 89.4797V89.4797ZM829.523 73.7874C830.197 73.401 830.997 73.4316 831.623 73.7981L832.138 74.102C832.352 74.2283 832.677 74.4851 832.948 74.6876C833.237 74.9014 833.517 75.1167 833.807 75.3216C834.373 75.7508 834.968 76.1007 835.5 76.546C836.581 77.435 837.91 77.8182 839.19 77.9631C839.352 77.9788 839.513 78.0188 839.676 78.0183L840.167 77.9989C840.493 77.98 840.824 78.0161 841.15 77.9206L842.139 77.7383L843.115 77.386L843.606 77.2134L844.081 76.9551L845.032 76.4394C845.644 76.0328 846.233 75.5579 846.842 75.1272L847.095 74.9484C848.047 74.2755 849.365 74.5018 850.038 75.4537C850.698 76.3884 850.489 77.6769 849.581 78.3602C848.831 78.9232 848.108 79.5123 847.324 80.0409L846.07 80.76L845.442 81.1194L844.756 81.4016L843.37 81.9446L841.887 82.2863C841.397 82.4248 840.876 82.4248 840.364 82.4666L839.592 82.5121C839.335 82.5183 839.078 82.4807 838.821 82.4651C837.786 82.4181 836.779 82.1863 835.802 81.8964C835.33 81.7194 834.844 81.559 834.377 81.3712C833.926 81.1626 833.44 80.999 832.995 80.7705C832.093 80.3326 831.3 79.7196 830.601 79.0346C830.244 78.6989 829.919 78.3299 829.613 77.9465C829.299 77.5446 829.054 77.1791 828.747 76.6435C828.173 75.6407 828.52 74.3621 829.523 73.7874V73.7874ZM864.461 80.9674C865.541 80.7851 866.567 81.4222 866.908 82.4258L866.995 82.6824C867.067 82.8963 867.207 83.2852 867.331 83.597C867.463 83.9284 867.599 84.2569 867.761 84.5759C868.062 85.2234 868.445 85.816 868.828 86.3887C869.626 87.5151 870.596 88.4035 871.665 89.0583C871.799 89.1398 871.921 89.246 872.063 89.3149L872.496 89.5076C872.789 89.6309 873.057 89.8062 873.383 89.8624C873.697 89.9462 874.01 90.0352 874.323 90.1302C874.656 90.1658 874.992 90.2028 875.328 90.2521L875.833 90.3229L876.365 90.3097L877.429 90.2966C878.152 90.2371 878.891 90.1059 879.632 90.0226L879.975 89.9843C881.176 89.849 882.263 90.7146 882.397 91.9173C882.524 93.038 881.78 94.0558 880.706 94.299C879.789 94.5081 878.881 94.7525 877.939 94.9164L876.482 95.0387L875.748 95.0934L874.997 95.0524C874.495 95.0216 873.99 94.988 873.488 94.9358L871.976 94.5832C871.466 94.4892 870.989 94.2565 870.501 94.0642L869.773 93.7586C869.536 93.6485 869.315 93.5003 869.089 93.3685C867.251 92.3194 865.792 90.7434 864.757 89.0473C864.243 88.1947 863.805 87.3112 863.464 86.4006C863.283 85.949 863.134 85.4855 862.994 85.019C862.86 84.5297 862.766 84.1092 862.661 83.4993C862.46 82.303 863.265 81.1693 864.461 80.9674V80.9674ZM904.699 88.13C903.118 81.0671 900.276 74.7756 896.18 69.2589C892.08 63.7451 886.972 59.1208 880.858 55.3937C874.741 51.665 867.923 49.0312 860.396 47.4911C853.001 45.9772 845.725 45.7268 838.574 46.7401C831.418 47.7512 824.907 49.998 819.036 53.471C813.166 56.948 808.114 61.6245 803.888 67.4986C799.658 73.3744 796.72 80.3406 795.072 88.3931C793.423 96.4479 793.382 104.04 794.951 111.17C796.515 118.299 799.311 124.65 803.329 130.218C807.35 135.787 812.434 140.509 818.591 144.382C824.743 148.252 831.517 150.947 838.913 152.461C846.439 154.001 853.759 154.19 860.876 153.036C867.99 151.879 874.522 149.534 880.472 146.006C886.42 142.477 891.518 137.742 895.76 131.801C900.002 125.86 902.949 118.863 904.597 110.808C906.246 102.755 906.276 95.1944 904.699 88.13" fill="#F37748"/>
<path d="M804.48 25.6629C803.63 25.9543 802.886 25.7129 802.249 25.1069C802.116 24.9806 801.998 24.8366 801.886 24.6904C801.431 24.0936 800.828 23.7206 800.106 23.5552C799.318 23.3747 798.524 23.2153 797.728 23.0681C797.364 23.001 797.002 22.9336 796.666 22.7784C796.019 22.4798 795.82 21.9099 796.134 21.2693C796.398 20.729 796.849 20.3908 797.385 20.1521C798.445 19.6801 799.553 19.6085 800.716 19.7717C802.538 19.8813 804.006 20.7817 805.292 22.0357C805.747 22.4798 806.093 22.9975 806.115 23.6724C806.15 24.757 805.253 25.3975 804.48 25.6629V25.6629ZM797.689 36.0712C795.782 40.1037 793.047 43.716 789.793 46.758C782.153 53.9005 771.689 57.7686 761.231 56.6984C754.966 56.0574 748.872 53.8038 743.575 50.2751C737.972 46.543 733.708 41.2033 730.879 35.1248C730.657 34.6459 730.437 34.1329 730.5 33.6087C730.857 30.6442 736.024 32.7541 737.622 33.1152C751.188 36.1809 766.174 34.3077 779.712 31.9233C783.104 31.3261 786.577 30.2961 789.812 28.9402C791.473 28.2437 793.096 27.4562 794.675 26.5874C796.028 25.8419 797.743 24.2174 799.414 24.9326C802.34 26.1853 798.578 34.1931 797.689 36.0712ZM728.107 32.8183C727.969 32.9396 727.835 33.0714 727.681 33.1696C726.952 33.6344 726.092 33.3516 725.767 32.5475C725.61 32.1593 725.602 31.7575 725.634 31.5501C725.769 30.3799 726.232 29.5675 726.814 28.8176C727.351 28.1261 728.009 27.5358 728.773 27.1332C730.057 26.4576 731.432 26.0371 732.911 26.1408C733.614 26.19 734.24 26.4258 734.669 27.0404C735.085 27.636 735.098 28.2529 734.741 28.8591C734.312 29.5889 733.658 30.0562 732.848 30.2941C732.495 30.3976 732.134 30.4769 731.775 30.5584C730.783 30.7837 729.91 31.2418 729.142 31.902C728.792 32.2023 728.453 32.5142 728.107 32.8183V32.8183ZM739.257 7.81568C739.698 6.82726 740.856 6.3834 741.844 6.82452L742.125 6.9496C742.734 7.22138 743.328 7.5332 743.929 7.77962L744.833 8.07949L745.281 8.23415L745.731 8.31101C746.03 8.35974 746.326 8.41891 746.621 8.47934C746.913 8.48307 747.203 8.49152 747.493 8.5052C747.785 8.54548 748.063 8.46939 748.345 8.44303L748.767 8.39629C748.906 8.37615 749.039 8.31845 749.176 8.28563C750.264 8.01758 751.33 7.5225 752.315 6.77901C752.796 6.39459 753.283 5.99325 753.715 5.52353C753.939 5.29551 754.145 5.05257 754.346 4.80565C754.536 4.57365 754.761 4.27999 754.881 4.11762L755.025 3.92267C755.586 3.15954 756.634 2.89498 757.503 3.34206C758.468 3.83814 758.848 5.02223 758.352 5.98678C758.099 6.47862 757.903 6.81109 757.656 7.19129C757.411 7.5516 757.159 7.90569 756.883 8.24187C756.345 8.92518 755.733 9.5595 755.063 10.1466C753.724 11.3118 752.052 12.2592 750.203 12.6558C749.974 12.7063 749.747 12.7732 749.514 12.8025L748.812 12.8662C748.344 12.8977 747.874 12.9666 747.414 12.9087L746.031 12.8C745.589 12.7083 745.15 12.6006 744.713 12.4907L744.061 12.3216L743.453 12.0772L742.244 11.5781C741.485 11.1832 740.777 10.7289 740.053 10.3027C739.203 9.80444 738.846 8.73621 739.257 7.81568V7.81568ZM771.286 2.55007C772.118 1.92097 773.301 2.0851 773.93 2.91612L774.097 3.13692C774.5 3.6688 774.873 4.233 775.285 4.74524L775.955 5.44223L776.289 5.7906L776.662 6.07109L777.398 6.63552L778.191 7.05851C778.443 7.2281 778.735 7.28677 779.008 7.39146L779.42 7.54065C779.559 7.58541 779.707 7.59486 779.85 7.62545C780.979 7.84849 782.215 7.88182 783.377 7.41707C783.951 7.18184 784.553 7.04482 785.151 6.83222C785.454 6.73623 785.751 6.62856 786.055 6.52462C786.341 6.42566 786.687 6.29463 786.904 6.24515L787.425 6.12577C788.058 5.9828 788.747 6.17327 789.217 6.68526C789.916 7.44615 789.865 8.62978 789.104 9.32851C788.698 9.702 788.391 9.94717 788.014 10.2043C787.65 10.4482 787.272 10.6745 786.878 10.864C786.096 11.2586 785.255 11.5659 784.368 11.695C783.927 11.7691 783.469 11.777 783.027 11.8322C782.579 11.8661 782.122 11.871 781.671 11.8939C780.76 11.8768 779.84 11.8014 778.945 11.561C778.721 11.5048 778.492 11.4675 778.275 11.3924L777.63 11.1447C777.205 10.9704 776.761 10.8294 776.381 10.5788L775.21 9.886L774.176 9.04778L773.668 8.62156L773.23 8.1454L772.357 7.19352C771.832 6.5306 771.375 5.83263 770.888 5.15006C770.299 4.32178 770.471 3.16724 771.286 2.55007V2.55007ZM812.454 8.78418C810.44 2.63462 807.374 -2.72099 803.255 -7.27914C799.133 -11.8341 794.193 -15.5117 788.432 -18.3042C782.668 -21.0991 776.374 -22.8571 769.544 -23.5832C762.833 -24.2968 756.337 -23.8965 750.06 -22.3796C743.779 -20.8678 738.177 -18.3091 733.25 -14.716C728.324 -11.1179 724.23 -6.52397 720.972 -0.93413C717.712 4.65745 715.694 11.1084 714.918 18.416C714.141 25.7253 714.756 32.4848 716.763 38.6958C718.766 44.9063 721.798 50.3178 725.852 54.9292C729.907 59.5403 734.837 63.3065 740.647 66.225C746.454 69.142 752.713 70.9597 759.425 71.6726C766.255 72.3982 772.784 71.9392 779.019 70.3013C785.25 68.6621 790.863 66.0159 795.856 62.3658C800.847 58.7158 804.977 54.0646 808.244 48.4141C811.508 42.7631 813.531 36.2838 814.308 28.9745C815.084 21.6669 814.464 14.9357 812.454 8.78418" fill="#067BC2"/>
<circle cx="657.169" cy="36.715" r="38.6556" fill="white"/>
<path d="M689.337 34.0779C689.19 34.0456 689.049 33.9815 688.907 33.9265C688.553 33.789 688.201 33.6435 687.845 33.51C687.062 33.2163 686.255 33.1092 685.422 33.2161C685.121 33.2546 684.818 33.2957 684.515 33.3156C683.82 33.3613 683.18 33.1848 682.64 32.7409C682.192 32.3722 682.026 31.8902 682.179 31.3106C682.338 30.7121 682.757 30.3515 683.287 30.1138C684.404 29.6138 685.59 29.5491 686.776 29.7085C687.483 29.8038 688.161 30.0746 688.774 30.4582C689.437 30.8742 690.027 31.3725 690.464 32.2416C690.548 32.3933 690.656 32.7069 690.644 33.0525C690.62 33.7681 690.035 34.2311 689.337 34.0779ZM687.413 36.5016C686.946 42.0166 685.156 47.3667 681.872 51.8503C678.767 56.0897 674.683 59.5667 670.008 61.8424C662.205 65.6406 652.995 65.6128 645.045 62.2447C641.659 60.8102 638.513 58.7861 635.89 56.2018C634.668 54.9983 629.478 49.8585 631.391 48.0565C632.483 47.0281 634.273 47.8006 635.534 47.9941C637.004 48.2196 638.486 48.3693 639.972 48.4375C642.865 48.5702 645.849 48.3828 648.648 47.8829C659.82 45.888 671.969 43.0858 681.615 36.8579C682.752 36.1244 686.158 33.0219 687.276 35.2188C687.474 35.6072 687.449 36.0672 687.413 36.5016V36.5016ZM630.463 47.1855C629.95 47.5189 629.589 47.9789 629.405 48.5707C629.36 48.7157 629.309 48.8609 629.242 48.9967C628.921 49.6472 628.413 50.0455 627.671 50.061C626.996 50.0749 626.119 49.8327 625.838 48.982C625.663 48.4529 625.785 47.9531 626.012 47.4796C626.652 46.1426 627.535 45.0279 628.916 44.4254C629.771 43.9691 630.651 43.71 631.607 43.7749C632.09 43.8077 632.535 43.9417 632.894 44.2856C633.319 44.6932 633.326 45.1915 632.909 45.6067C632.693 45.8223 632.431 45.9772 632.168 46.1329C631.593 46.4728 631.023 46.8217 630.463 47.1855V47.1855ZM633.852 30.7434C634.067 30.2143 634.543 29.8699 635.071 29.7985L635.506 29.7408C635.688 29.7167 635.992 29.718 636.24 29.7123C636.504 29.7053 636.764 29.7028 637.024 29.6899C637.546 29.6817 638.048 29.6148 638.558 29.6309C639.586 29.6551 640.528 29.2749 641.333 28.779C641.434 28.7146 641.546 28.6647 641.64 28.5906L641.914 28.3573C642.094 28.1984 642.302 28.0696 642.448 27.8665L642.937 27.3134L643.341 26.6674L643.548 26.3447L643.705 25.9806L644.021 25.2518C644.191 24.7391 644.317 24.1978 644.474 23.6728L644.539 23.4548C644.785 22.6344 645.649 22.1685 646.47 22.4141C647.275 22.6553 647.738 23.4948 647.522 24.3017C647.344 24.9669 647.192 25.6353 646.978 26.2962L646.579 27.2799L646.378 27.772L646.11 28.2459L645.554 29.1878L644.851 30.0574C644.631 30.3593 644.329 30.5952 644.052 30.8516L643.627 31.2273C643.481 31.3474 643.315 31.4419 643.159 31.5493C642.539 31.9912 641.852 32.3132 641.156 32.5877C640.803 32.6996 640.449 32.8272 640.094 32.9296C639.739 33.0137 639.384 33.1393 639.023 33.2086C638.303 33.3638 637.567 33.3688 636.852 33.2892C636.494 33.2564 636.139 33.1907 635.788 33.1074C635.424 33.0174 635.117 32.917 634.697 32.7461C633.911 32.4266 633.532 31.5299 633.852 30.7434V30.7434ZM657.308 19.0687C657.849 18.4749 658.731 18.3779 659.383 18.8044L659.549 18.9133C659.688 19.0038 659.946 19.1652 660.158 19.2893C660.385 19.4215 660.612 19.5496 660.85 19.661C661.318 19.8984 661.808 20.0678 662.288 20.2257C663.26 20.5154 664.223 20.5907 665.138 20.4848C665.252 20.4706 665.371 20.4771 665.484 20.4525L665.822 20.3677C666.047 20.307 666.283 20.2856 666.496 20.1707C666.716 20.077 666.936 19.9872 667.16 19.9005C667.37 19.7697 667.581 19.6389 667.797 19.5155L668.122 19.3275L668.422 19.0796L669.032 18.5895C669.424 18.2272 669.791 17.8167 670.182 17.4328L670.363 17.2557C670.997 16.6328 672.016 16.642 672.639 17.2764C673.22 17.8672 673.251 18.7922 672.74 19.4195C672.305 19.9554 671.89 20.5087 671.419 21.0301L670.632 21.7611L670.233 22.1242L669.78 22.4412C669.475 22.6514 669.169 22.86 668.854 23.0577L667.821 23.5381C667.483 23.7146 667.102 23.7967 666.732 23.9066L666.174 24.0593C665.986 24.1033 665.792 24.1169 665.601 24.144C664.063 24.3693 662.505 24.1197 661.139 23.6069C660.455 23.3471 659.802 23.0345 659.192 22.6625C658.883 22.483 658.587 22.2828 658.295 22.0757C657.995 21.8542 657.749 21.6542 657.414 21.3484C656.755 20.7481 656.708 19.7274 657.308 19.0687V19.0687ZM698.433 34.2856C698.194 28.9292 696.729 23.548 694.033 18.1437C691.339 12.7406 687.932 8.35425 683.82 4.98419C679.705 1.61661 675.213 -0.735204 670.345 -2.06926C665.476 -3.40007 660.429 -3.76113 655.205 -3.14645C649.978 -2.53152 644.842 -0.965955 639.792 1.5527C634.83 4.0276 630.51 7.17808 626.834 11.0034C623.154 14.8295 620.406 19.0779 618.585 23.7457C616.766 28.4153 615.963 33.4078 616.18 38.7189C616.395 44.0325 617.852 49.3916 620.547 54.7944C623.242 60.199 626.657 64.6077 630.794 68.0203C634.928 71.4341 639.421 73.8401 644.267 75.2398C649.115 76.639 654.194 77.0662 659.508 76.5169C664.819 75.9682 669.957 74.458 674.919 71.9832C679.969 69.4645 684.287 66.2585 687.879 62.3668C691.469 58.4755 694.184 54.1611 696.027 49.4251C697.869 44.6899 698.671 39.6432 698.433 34.2856" fill="#ECC30B"/>
<ellipse cx="1.34204" cy="153.667" rx="55.5439" ry="53.2922" fill="white"/>
<ellipse cx="47.5" cy="43" rx="47.5" ry="44" fill="white"/>
<path d="M45.5627 155.334C44.618 155.661 43.79 155.395 43.0796 154.723C42.9314 154.583 42.7996 154.423 42.675 154.26C42.1667 153.598 41.4954 153.185 40.6914 153.004C39.8137 152.805 38.93 152.631 38.0445 152.469C37.6394 152.396 37.2366 152.322 36.8626 152.15C36.142 151.82 35.9184 151.187 36.2653 150.473C36.5577 149.871 37.058 149.494 37.6536 149.227C38.8315 148.699 40.0638 148.615 41.3574 148.793C43.3847 148.909 45.0203 149.906 46.4546 151.297C46.9624 151.79 47.3493 152.364 47.3754 153.115C47.4174 154.321 46.4215 155.037 45.5627 155.334V155.334ZM38.0422 166.933C35.9329 171.424 32.9025 175.451 29.2925 178.845C20.8164 186.814 9.18918 191.148 -2.44629 189.992C-9.41717 189.298 -16.2028 186.811 -22.1062 182.902C-28.3503 178.768 -33.1103 172.842 -36.2755 166.09C-36.5247 165.558 -36.7708 164.988 -36.7022 164.405C-36.314 161.106 -30.5606 163.437 -28.7817 163.833C-13.6822 167.201 2.98117 165.07 18.033 162.375C21.8036 161.701 25.6633 160.544 29.2574 159.026C31.1034 158.246 32.9065 157.365 34.6592 156.393C36.1626 155.56 38.0654 153.747 39.9256 154.538C43.1842 155.922 39.0247 164.841 38.0422 166.933ZM-39.3668 163.533C-39.5202 163.668 -39.6682 163.815 -39.839 163.925C-40.6494 164.444 -41.6057 164.132 -41.9703 163.239C-42.1461 162.808 -42.1558 162.361 -42.1205 162.13C-41.9747 160.828 -41.4623 159.923 -40.817 159.087C-40.222 158.316 -39.4921 157.657 -38.643 157.207C-37.2177 156.451 -35.6889 155.979 -34.0435 156.09C-33.262 156.143 -32.5645 156.403 -32.0849 157.085C-31.6204 157.746 -31.6045 158.433 -31.9993 159.108C-32.4748 159.921 -33.2003 160.443 -34.101 160.71C-34.4936 160.827 -34.8945 160.916 -35.294 161.008C-36.3966 161.261 -37.3659 161.774 -38.2188 162.51C-38.6064 162.845 -38.9826 163.194 -39.3668 163.533ZM-27.0428 135.686C-26.5554 134.586 -25.2684 134.089 -24.1673 134.576L-23.8548 134.714C-23.1764 135.015 -22.515 135.36 -21.8461 135.632L-20.8393 135.963L-20.3405 136.134L-19.8397 136.217C-19.507 136.271 -19.1773 136.336 -18.8495 136.402C-18.5243 136.405 -18.2018 136.414 -17.8795 136.428C-17.5535 136.472 -17.2447 136.386 -16.9314 136.356L-16.4627 136.303C-16.3072 136.28 -16.1603 136.215 -16.0079 136.179C-14.7979 135.877 -13.6143 135.323 -12.5207 134.493C-11.9873 134.064 -11.4472 133.616 -10.9673 133.092C-10.7187 132.837 -10.4911 132.567 -10.2676 132.291C-10.057 132.033 -9.80732 131.705 -9.67453 131.524L-9.51564 131.307C-8.89374 130.456 -7.72878 130.159 -6.76025 130.653C-5.6858 131.202 -5.25935 132.518 -5.80814 133.593C-6.08813 134.141 -6.30446 134.511 -6.57898 134.935C-6.84952 135.336 -7.12977 135.731 -7.43537 136.105C-8.0314 136.867 -8.71023 137.575 -9.45297 138.23C-10.9392 139.53 -12.7959 140.589 -14.8513 141.036C-15.1067 141.093 -15.3589 141.168 -15.6175 141.202L-16.3985 141.274C-16.9189 141.311 -17.4416 141.389 -17.9534 141.326L-19.4921 141.21C-19.9844 141.109 -20.4725 140.991 -20.9586 140.87L-21.6845 140.684L-22.3621 140.414L-23.7086 139.862C-24.5532 139.426 -25.3425 138.922 -26.1494 138.451C-27.096 137.899 -27.4969 136.712 -27.0428 135.686V135.686ZM8.56828 129.729C9.49105 129.027 10.8079 129.206 11.5102 130.128L11.6966 130.373C12.1462 130.963 12.563 131.59 13.0225 132.158L13.7707 132.932L14.1434 133.318L14.5587 133.629L15.3793 134.254L16.2628 134.722C16.5437 134.91 16.8682 134.975 17.1721 135.09L17.6314 135.255C17.7858 135.304 17.9511 135.314 18.1095 135.348C19.3663 135.592 20.7416 135.626 22.0326 135.105C22.6707 134.842 23.3388 134.687 24.0037 134.449C24.3404 134.341 24.6706 134.221 25.0081 134.104C25.3259 133.993 25.7108 133.846 25.952 133.79L26.5311 133.656C27.2341 133.495 28.0017 133.705 28.5263 134.273C29.3059 135.117 29.2534 136.433 28.4092 137.213C27.9582 137.63 27.6172 137.903 27.1988 138.191C26.7942 138.463 26.3754 138.716 25.9371 138.928C25.0695 139.369 24.134 139.714 23.1479 139.86C22.6578 139.944 22.148 139.954 21.6571 140.017C21.1588 140.056 20.6498 140.063 20.1485 140.09C19.136 140.074 18.1118 139.993 17.1154 139.728C16.8665 139.666 16.6119 139.626 16.3697 139.543L15.6516 139.269C15.1781 139.077 14.684 138.921 14.2608 138.644L12.9556 137.877L11.8028 136.948L11.2364 136.475L10.7478 135.947L9.77353 134.891C9.18719 134.155 8.67694 133.38 8.13362 132.622C7.47592 131.703 7.66267 130.418 8.56828 129.729V129.729ZM54.3796 136.535C52.1208 129.701 48.693 123.753 44.0968 118.696C39.4979 113.642 33.9909 109.566 27.5742 106.478C21.1539 103.389 14.1477 101.451 6.54843 100.666C-0.919029 99.8938 -8.14305 100.36 -15.1206 102.064C-22.103 103.767 -28.3256 106.63 -33.7944 110.643C-39.2621 114.66 -43.8026 119.784 -47.4082 126.011C-51.0177 132.241 -53.2417 139.423 -54.0822 147.554C-54.9229 155.687 -54.2187 163.204 -51.9668 170.106C-49.7187 177.008 -46.3292 183.018 -41.8057 188.134C-37.2811 193.252 -31.7855 197.424 -25.3131 200.652C-18.845 203.88 -11.8767 205.881 -4.40895 206.655C3.19029 207.44 10.4516 206.908 17.3817 205.066C24.3081 203.223 30.5425 200.262 36.0853 196.186C41.6259 192.111 46.205 186.925 49.8209 180.629C53.4337 174.333 55.6644 167.12 56.5051 158.987C57.3458 150.856 56.6347 143.371 54.3796 136.535" fill="#067BC2"/>
<ellipse cx="134.768" cy="140.259" rx="53.6675" ry="51.791" fill="white"/>
<path d="M172.133 163.789C172.095 164.022 171.946 164.449 171.645 164.81C171.019 165.557 170.002 165.561 169.382 164.811C169.251 164.653 169.156 164.466 169.049 164.288C168.786 163.843 168.53 163.392 168.261 162.95C167.667 161.978 166.893 161.186 165.911 160.601C165.556 160.389 165.198 160.18 164.854 159.946C164.071 159.411 163.534 158.685 163.328 157.756C163.156 156.984 163.385 156.329 164.036 155.837C164.708 155.328 165.459 155.293 166.227 155.484C167.843 155.886 169.169 156.812 170.307 157.979C170.984 158.674 171.484 159.534 171.817 160.459C172.18 161.462 172.394 162.492 172.133 163.789V163.789ZM166.217 164.304C166.103 164.886 165.69 165.359 165.285 165.793C160.155 171.311 153.744 175.543 146.461 177.591C139.576 179.528 132.279 179.825 125.359 178.339C113.808 175.859 103.961 168.098 98.2679 157.813C95.8435 153.433 94.1715 148.624 93.5297 143.651C93.2306 141.336 91.9835 131.47 95.5461 131.145C97.5796 130.959 98.8502 133.291 100.039 134.557C101.425 136.033 102.888 137.437 104.423 138.757C107.412 141.328 110.768 143.633 114.186 145.447C127.835 152.688 143.206 159.884 158.772 161.308C160.607 161.476 166.861 161.011 166.217 164.304V164.304ZM92.4547 130.349C91.5638 130.776 90.6848 130.776 89.8771 130.17C89.1424 129.619 88.4056 128.623 88.8184 127.475C89.0755 126.761 89.6255 126.328 90.2661 126.011C92.075 125.116 93.9569 124.662 95.9432 125.176C97.2422 125.405 98.4022 125.865 99.3722 126.738C99.8625 127.178 100.227 127.696 100.323 128.365C100.436 129.159 100.025 129.699 99.2302 129.794C98.8172 129.844 98.4071 129.79 97.9946 129.736C97.093 129.618 96.1888 129.513 95.283 129.433C94.4535 129.359 93.6804 129.549 92.9866 130.029C92.8168 130.147 92.6405 130.26 92.4547 130.349V130.349ZM112.718 114.657C113.393 114.27 114.193 114.301 114.818 114.667L115.334 114.971C115.548 115.098 115.873 115.354 116.144 115.557C116.433 115.771 116.713 115.986 117.003 116.191C117.569 116.62 118.164 116.97 118.696 117.415C119.777 118.304 121.106 118.687 122.386 118.832C122.548 118.848 122.709 118.888 122.872 118.888L123.362 118.868C123.689 118.849 124.019 118.885 124.346 118.79L125.334 118.608L126.31 118.255L126.802 118.083L127.277 117.824L128.227 117.309C128.84 116.902 129.429 116.427 130.038 115.996L130.291 115.818C131.243 115.145 132.56 115.371 133.233 116.323C133.894 117.258 133.685 118.546 132.777 119.23C132.027 119.792 131.304 120.382 130.519 120.91L129.266 121.629L128.638 121.989L127.952 122.271L126.566 122.814L125.082 123.156C124.593 123.294 124.072 123.294 123.559 123.336L122.788 123.381C122.531 123.388 122.274 123.35 122.017 123.334C120.981 123.287 119.974 123.056 118.998 122.766C118.525 122.589 118.039 122.428 117.573 122.241C117.121 122.032 116.636 121.868 116.191 121.64C115.289 121.202 114.496 120.589 113.797 119.904C113.44 119.568 113.115 119.199 112.809 118.816C112.494 118.414 112.25 118.048 111.943 117.513C111.369 116.51 111.716 115.231 112.718 114.657V114.657ZM147.657 121.837C148.736 121.654 149.763 122.291 150.104 123.295L150.191 123.552C150.263 123.766 150.402 124.154 150.527 124.466C150.658 124.798 150.795 125.126 150.957 125.445C151.258 126.093 151.641 126.685 152.024 127.258C152.822 128.384 153.792 129.273 154.861 129.928C154.995 130.009 155.117 130.115 155.259 130.184L155.691 130.377C155.985 130.5 156.253 130.675 156.579 130.732C156.892 130.815 157.206 130.904 157.519 130.999C157.852 131.035 158.188 131.072 158.524 131.121L159.028 131.192L159.56 131.179L160.625 131.166C161.348 131.106 162.087 130.975 162.828 130.892L163.171 130.854C164.372 130.718 165.459 131.584 165.593 132.787C165.72 133.907 164.976 134.925 163.902 135.168C162.984 135.377 162.077 135.622 161.134 135.786L159.677 135.908L158.944 135.963L158.193 135.922C157.691 135.891 157.186 135.857 156.683 135.805L155.172 135.452C154.662 135.358 154.184 135.126 153.697 134.934L152.969 134.628C152.732 134.518 152.511 134.37 152.285 134.238C150.447 133.189 148.987 131.613 147.953 129.917C147.438 129.064 147.001 128.18 146.66 127.27C146.479 126.818 146.329 126.355 146.19 125.888C146.056 125.399 145.961 124.978 145.857 124.369C145.655 123.172 146.461 122.039 147.657 121.837V121.837ZM187.895 128.999C186.314 121.936 183.471 115.645 179.376 110.128C175.276 104.614 170.168 99.9901 164.054 96.2629C157.937 92.5343 151.118 89.9005 143.592 88.3603C136.196 86.8465 128.921 86.5961 121.769 87.6094C114.613 88.6204 108.103 90.8673 102.232 94.3403C96.3622 97.8173 91.3099 102.494 87.084 108.368C82.854 114.244 79.9159 121.21 78.2678 129.262C76.6192 137.317 76.5781 144.909 78.1464 152.039C79.7112 159.169 82.5064 165.519 86.5252 171.088C90.5455 176.657 95.6301 181.378 101.787 185.251C107.938 189.121 114.713 191.817 122.109 193.33C129.635 194.87 136.955 195.06 144.072 193.905C151.186 192.748 157.718 190.404 163.668 186.875C169.616 183.347 174.714 178.611 178.956 172.67C183.198 166.729 186.145 159.732 187.793 151.677C189.442 143.625 189.472 136.064 187.895 128.999" fill="#F37748"/>
<path d="M87.4798 44.6629C86.6296 44.9543 85.8856 44.7129 85.2488 44.1069C85.116 43.9806 84.9977 43.8366 84.8863 43.6904C84.4312 43.0936 83.8285 42.7206 83.1064 42.5552C82.3176 42.3747 81.5237 42.2153 80.728 42.0681C80.3639 42.001 80.0021 41.9336 79.6662 41.7784C79.0192 41.4798 78.82 40.9099 79.1336 40.2693C79.3979 39.729 79.849 39.3908 80.3848 39.1521C81.4451 38.6801 82.5531 38.6085 83.7156 38.7717C85.5378 38.8813 87.0061 39.7817 88.2917 41.0357C88.747 41.4798 89.0934 41.9975 89.115 42.6724C89.1498 43.757 88.2526 44.3975 87.4798 44.6629V44.6629ZM80.6892 55.0712C78.7817 59.1037 76.047 62.716 72.793 65.758C65.153 72.9005 54.6887 76.7686 44.2314 75.6984C37.9665 75.0574 31.8723 72.8038 26.5749 69.2751C20.9721 65.543 16.7077 60.2033 13.8794 54.1248C13.6566 53.6459 13.4371 53.1329 13.5002 52.6087C13.8573 49.6442 19.0239 51.7541 20.622 52.1152C34.1881 55.1809 49.174 53.3077 62.7124 50.9233C66.1039 50.3261 69.5769 49.2961 72.8119 47.9402C74.4732 47.2437 76.0965 46.4562 77.6747 45.5874C79.0284 44.8419 80.7434 43.2174 82.4139 43.9326C85.3401 45.1853 81.5776 53.1931 80.6892 55.0712ZM11.1066 51.8183C10.9686 51.9396 10.8351 52.0714 10.6812 52.1696C9.95161 52.6344 9.0925 52.3516 8.767 51.5475C8.60985 51.1593 8.60239 50.7575 8.63446 50.5501C8.76899 49.3799 9.23223 48.5675 9.81434 47.8176C10.3512 47.1261 11.0089 46.5358 11.7735 46.1332C13.0566 45.4576 14.4324 45.0371 15.9112 45.1408C16.6137 45.19 17.2403 45.4258 17.6695 46.0404C18.0855 46.636 18.0979 47.2529 17.7413 47.8591C17.3119 48.5889 16.6582 49.0562 15.8478 49.2941C15.4947 49.3976 15.1339 49.4769 14.7746 49.5584C13.7829 49.7837 12.9099 50.2418 12.1415 50.902C11.7922 51.2023 11.4528 51.5142 11.1066 51.8183V51.8183ZM22.2567 26.8157C22.6976 25.8273 23.8561 25.3834 24.8445 25.8245L25.125 25.9496C25.7342 26.2214 26.328 26.5332 26.9287 26.7796L27.8329 27.0795L28.281 27.2341L28.731 27.311C29.0299 27.3597 29.3263 27.4189 29.6207 27.4793C29.9129 27.4831 30.2028 27.4915 30.4928 27.5052C30.7854 27.5455 31.0634 27.4694 31.3452 27.443L31.7666 27.3963C31.9064 27.3761 32.0387 27.3185 32.1757 27.2856C33.2643 27.0176 34.3298 26.5225 35.3152 25.779C35.7959 25.3946 36.2825 24.9932 36.7152 24.5235C36.9395 24.2955 37.1449 24.0526 37.3463 23.8057C37.5363 23.5737 37.7613 23.28 37.8814 23.1176L38.0249 22.9227C38.5861 22.1595 39.634 21.895 40.5035 22.3421C41.4681 22.8381 41.848 24.0222 41.3519 24.9868C41.0988 25.4786 40.9033 25.8111 40.6557 26.1913C40.4115 26.5516 40.1586 26.9057 39.8829 27.2419C39.345 27.9252 38.7331 28.5595 38.0634 29.1466C36.7239 30.3118 35.0522 31.2592 33.2034 31.6558C32.9736 31.7063 32.7466 31.7732 32.5139 31.8025L31.8117 31.8662C31.3439 31.8977 30.8737 31.9666 30.4139 31.9087L29.0309 31.8C28.5885 31.7083 28.1499 31.6006 27.7133 31.4907L27.061 31.3216L26.4526 31.0772L25.2436 30.5781C24.4852 30.1832 23.7773 29.7289 23.0529 29.3027C22.203 28.8044 21.8459 27.7362 22.2567 26.8157V26.8157ZM54.2864 21.5501C55.1177 20.921 56.3013 21.0851 56.9301 21.9161L57.0972 22.1369C57.4998 22.6688 57.8728 23.233 58.2846 23.7452L58.9552 24.4422L59.2894 24.7906L59.6616 25.0711L60.3982 25.6355L61.1911 26.0585C61.4433 26.2281 61.735 26.2868 62.0077 26.3915L62.42 26.5407C62.559 26.5854 62.7075 26.5949 62.8497 26.6254C63.9791 26.8485 65.2152 26.8818 66.3774 26.4171C66.9513 26.1818 67.5526 26.0448 68.1511 25.8322C68.4537 25.7362 68.7511 25.6286 69.0547 25.5246C69.3407 25.4257 69.6871 25.2946 69.9039 25.2452L70.4251 25.1258C71.0577 24.9828 71.7469 25.1733 72.2171 25.6853C72.9159 26.4462 72.8654 27.6298 72.1045 28.3285C71.6982 28.702 71.3909 28.9472 71.0139 29.2043C70.6496 29.4482 70.2724 29.6745 69.8778 29.864C69.0965 30.2586 68.2548 30.5659 67.3678 30.695C66.9269 30.7691 66.4687 30.777 66.0273 30.8322C65.579 30.8661 65.1217 30.871 64.6709 30.8939C63.7605 30.8768 62.84 30.8014 61.9448 30.561C61.7213 30.5048 61.4925 30.4675 61.2752 30.3924L60.6299 30.1447C60.205 29.9704 59.7611 29.8294 59.3814 29.5788L58.21 28.886L57.1758 28.0478L56.6678 27.6216L56.2299 27.1454L55.3566 26.1935C54.8317 25.5306 54.3747 24.8326 53.8883 24.1501C53.2992 23.3218 53.4706 22.1672 54.2864 21.5501V21.5501ZM95.4538 27.7842C93.4404 21.6346 90.3739 16.279 86.2547 11.7209C82.1329 7.16593 77.1926 3.48828 71.4316 0.695848C65.6677 -2.09907 59.3739 -3.85708 52.544 -4.58316C45.8328 -5.29681 39.3373 -4.89646 33.0599 -3.37965C26.7786 -1.86781 21.1768 0.69087 16.2504 4.28398C11.3244 7.88207 7.22979 12.476 3.97236 18.0659C0.711956 23.6574 -1.30566 30.1084 -2.08197 37.416C-2.85853 44.7253 -2.24434 51.4848 -0.237418 57.6958C1.76602 63.9063 4.79791 69.3178 8.85179 73.9292C12.9067 78.5403 17.8366 82.3065 23.647 85.225C29.4536 88.142 35.7134 89.9597 42.4246 90.6726C49.2545 91.3982 55.7841 90.9392 62.0187 89.3013C68.2503 87.6621 73.8628 85.0159 78.8561 81.3658C83.8472 77.7158 87.9769 73.0646 91.244 67.4141C94.5076 61.7631 96.5312 55.2838 97.3078 47.9745C98.0841 40.6669 97.4637 33.9357 95.4538 27.7842" fill="#ECC30B"/>
<circle cx="148.023" cy="24.152" r="38.6556" fill="white"/>
<path d="M180.192 21.515C180.044 21.4827 179.904 21.4185 179.762 21.3636C179.407 21.2261 179.056 21.0806 178.7 20.9471C177.917 20.6534 177.11 20.5463 176.277 20.6532C175.975 20.6917 175.673 20.7327 175.37 20.7526C174.674 20.7984 174.035 20.6218 173.495 20.178C173.046 19.8092 172.881 19.3273 173.034 18.7477C173.193 18.1492 173.611 17.7886 174.142 17.5509C175.259 17.0508 176.445 16.9862 177.631 17.1456C178.338 17.2408 179.016 17.5116 179.628 17.8953C180.292 18.3113 180.882 18.8096 181.319 19.6787C181.402 19.8304 181.51 20.1439 181.499 20.4896C181.475 21.2052 180.889 21.6682 180.192 21.515ZM178.267 23.9387C177.8 29.4537 176.011 34.8038 172.727 39.2874C169.622 43.5267 165.537 47.0037 160.863 49.2794C153.06 53.0777 143.85 53.0499 135.9 49.6818C132.513 48.2473 129.368 46.2232 126.744 43.6389C125.523 42.4354 120.333 37.2956 122.245 35.4936C123.337 34.4651 125.128 35.2377 126.389 35.4312C127.859 35.6567 129.341 35.8064 130.827 35.8745C133.72 36.0073 136.704 35.8198 139.503 35.32C150.675 33.325 162.824 30.5229 172.47 24.295C173.606 23.5615 177.012 20.459 178.131 22.6558C178.329 23.0443 178.304 23.5043 178.267 23.9387V23.9387ZM121.318 34.6225C120.805 34.956 120.443 35.416 120.26 36.0078C120.215 36.1528 120.164 36.298 120.097 36.4338C119.776 37.0843 119.268 37.4826 118.526 37.498C117.851 37.512 116.974 37.2698 116.693 36.4191C116.518 35.89 116.64 35.3901 116.867 34.9167C117.507 33.5797 118.39 32.4649 119.771 31.8624C120.626 31.4061 121.505 31.147 122.461 31.2119C122.944 31.2448 123.39 31.3788 123.748 31.7227C124.173 32.1302 124.181 32.6285 123.764 33.0438C123.548 33.2594 123.286 33.4143 123.023 33.57C122.448 33.9099 121.878 34.2588 121.318 34.6225V34.6225ZM124.707 18.1805C124.922 17.6514 125.398 17.307 125.926 17.2356L126.361 17.1779C126.542 17.1538 126.847 17.155 127.095 17.1493C127.359 17.1424 127.618 17.1399 127.879 17.1269C128.401 17.1187 128.903 17.0518 129.413 17.068C130.441 17.0921 131.383 16.7119 132.188 16.2161C132.289 16.1517 132.4 16.1017 132.494 16.0276L132.769 15.7944C132.949 15.6355 133.157 15.5067 133.302 15.3035L133.791 14.7505L134.196 14.1045L134.402 13.7817L134.56 13.4177L134.876 12.6889C135.046 12.1762 135.171 11.6348 135.329 11.1099L135.394 10.8918C135.64 10.0715 136.504 9.60554 137.324 9.85121C138.13 10.0924 138.593 10.9319 138.377 11.7388C138.198 12.4039 138.047 13.0723 137.833 13.7333L137.434 14.7169L137.233 15.209L136.965 15.683L136.409 16.6249L135.706 17.4945C135.485 17.7963 135.184 18.0323 134.907 18.2887L134.481 18.6644C134.336 18.7845 134.17 18.879 134.014 18.9864C133.394 19.4283 132.707 19.7503 132.011 20.0248C131.657 20.1367 131.304 20.2643 130.949 20.3667C130.593 20.4508 130.238 20.5763 129.878 20.6457C129.158 20.8009 128.421 20.8058 127.707 20.7263C127.349 20.6934 126.993 20.6278 126.643 20.5445C126.279 20.4545 125.972 20.354 125.552 20.1832C124.765 19.8637 124.387 18.967 124.707 18.1805V18.1805ZM148.163 6.50576C148.703 5.91196 149.586 5.81499 150.237 6.24144L150.404 6.35035C150.543 6.44086 150.8 6.60224 151.013 6.72632C151.239 6.85861 151.467 6.98665 151.705 7.09805C152.173 7.33552 152.663 7.50485 153.143 7.66275C154.115 7.95244 155.077 8.0278 155.992 7.92187C156.107 7.9077 156.226 7.91415 156.339 7.88953L156.677 7.80473C156.901 7.74406 157.137 7.72268 157.351 7.6078C157.57 7.51405 157.791 7.42431 158.015 7.33753C158.224 7.20673 158.435 7.07593 158.652 6.95259L158.976 6.76462L159.277 6.51669L159.887 6.02658C160.279 5.66429 160.646 5.25377 161.037 4.86984L161.217 4.69279C161.852 4.0699 162.871 4.0791 163.494 4.71343C164.075 5.30424 164.106 6.22924 163.595 6.8566C163.159 7.39246 162.745 7.94574 162.274 8.46717L161.487 9.19822L161.088 9.56127L160.635 9.87831C160.33 10.0884 160.023 10.2971 159.709 10.4947L158.675 10.9751C158.338 11.1517 157.956 11.2337 157.587 11.3436L157.028 11.4963C156.841 11.5403 156.647 11.554 156.455 11.5811C154.918 11.8064 153.359 11.5568 151.994 11.044C151.31 10.7842 150.656 10.4716 150.046 10.0996C149.738 9.92007 149.441 9.71991 149.15 9.51278C148.85 9.29122 148.604 9.0913 148.268 8.78545C147.61 8.18519 147.562 7.16446 148.163 6.50576V6.50576ZM189.288 21.7227C189.048 16.3663 187.584 10.9851 184.888 5.58075C182.194 0.177652 178.787 -4.20867 174.674 -7.57874C170.56 -10.9463 166.068 -13.2981 161.2 -14.6322C156.331 -15.963 151.284 -16.3241 146.06 -15.7094C140.833 -15.0944 135.697 -13.5289 130.647 -11.0102C125.685 -8.53533 121.365 -5.38484 117.688 -1.55948C114.008 2.26662 111.261 6.51496 109.44 11.1828C107.621 15.8523 106.818 20.8449 107.035 26.156C107.25 31.4695 108.707 36.8286 111.401 42.2315C114.097 47.6361 117.512 52.0448 121.648 55.4574C125.783 58.8712 130.276 61.2772 135.122 62.6769C139.969 64.0761 145.048 64.5033 150.363 63.954C155.673 63.4052 160.812 61.8951 165.774 59.4202C170.824 56.9016 175.142 53.6956 178.734 49.8039C182.324 45.9126 185.039 41.5981 186.882 36.8622C188.723 32.127 189.525 27.0802 189.288 21.7227" fill="#84BCDA"/>
</g>
<defs>
<clipPath id="clip0_475_116">
<rect width="830" height="201" rx="5" fill="white"/>
</clipPath>
</defs>
</svg>
